<svg xmlns="http://www.w3.org/2000/svg" width="601.558" height="583.795" viewBox="0 0 601.558 583.795">
    <defs>
        <style>
            .cls-1,.cls-26,.cls-31,.cls-43{fill:#f1dfce}.cls-1,.cls-11,.cls-15,.cls-2,.cls-22,.cls-23,.cls-26,.cls-27,.cls-29,.cls-3,.cls-30,.cls-31,.cls-39,.cls-4,.cls-40,.cls-41,.cls-42,.cls-5{stroke:#263238}.cls-1,.cls-11,.cls-22,.cls-26,.cls-27,.cls-3,.cls-39,.cls-4,.cls-40,.cls-41,.cls-42,.cls-5{stroke-miterlimit:10}.cls-2,.cls-29,.cls-45,.cls-5{fill:rgba(203,203,203,.09)}.cls-15,.cls-2,.cls-23,.cls-29,.cls-30,.cls-38{stroke-linejoin:round}.cls-3,.cls-33{fill:#eedac7}.cls-4{fill:#c8a59c}.cls-15,.cls-6,.cls-9{fill:#cbcbcb}.cls-7{opacity:.7}.cls-8{fill:#f7f7f7}.cls-9{opacity:.8}.cls-10{fill:#263238}.cls-11,.cls-22,.cls-23,.cls-24{fill:#fff}.cls-11,.cls-15{stroke-width:1.34px}.cls-12{fill:#e8e8e8}.cls-13{fill:#d41179}.cls-14{fill:#236b81}.cls-15,.cls-38{stroke-linecap:round}.cls-16{fill:#65a640}.cls-17{fill:#509b25}.cls-17,.cls-21{opacity:.3}.cls-18{fill:#c6ff00}.cls-19{opacity:.2}.cls-20{fill:#c92873}.cls-21{fill:#ffbe91}.cls-25{clip-path:url(#clip-path)}.cls-26,.cls-29,.cls-33,.cls-45{opacity:.5}.cls-27,.cls-30,.cls-34,.cls-38{fill:none}.cls-28{clip-path:url(#clip-path-2)}.cls-32{clip-path:url(#clip-path-3)}.cls-35{clip-path:url(#clip-path-4)}.cls-36{fill:#e9d3bf;opacity:.43}.cls-37{fill:#606161}.cls-38{stroke:#fff;stroke-width:.5px}.cls-39{fill:#0a245a}.cls-40{fill:#1fb7e5}.cls-41{fill:#383a3a}.cls-42{fill:#515252}.cls-44{clip-path:url(#clip-path-5)}
        </style>
        <clipPath id="clip-path">
            <path id="Path_3063" d="M149.051 223.956l-48.808-15.934L95.9 196.55l-9.916-.311-17.994-3.409 2.164 3.72L92.8 212.988l5.588 2.787 51.047 26.665z" class="cls-1" data-name="Path 3063" transform="translate(-67.99 -192.83)"/>
        </clipPath>
        <clipPath id="clip-path-2">
            <path id="Path_3067" d="M91.357 196.246L86.7 193.46l-9.293 3.409 1.541 1.853z" class="cls-2" data-name="Path 3067" transform="translate(-77.41 -193.46)"/>
        </clipPath>
        <clipPath id="clip-path-3">
            <path id="Path_3071" d="M135.308 145.175s-.756 6.67 1.126 10.953 12.332 18.794 12.332 18.794L129.26 190.56s-8.093-16.3-9.634-18.942-3.394-13.992 1.63-22.129 12.258-10.331 14.052-4.314z" class="cls-3" data-name="Path 3071" transform="translate(-117.978 -141.747)"/>
        </clipPath>
        <clipPath id="clip-path-4">
            <path id="Path_3075" d="M152.081 142.952c-1.2-7.411-9.694-22.485-23.167-21.907-8.745.385-12.836 2.149-16.63 4.3a48.911 48.911 0 0 0-8.6 6.433c-6.581 7.9-8.893 10.064-7.618 16.111a18.142 18.142 0 0 0 1.112 7.085c2.016 5.38 3.394 8.893 5.143 11.457-.534 2.5-1.927 9.115-2 10.627s4.447.459 6.729-.119c4.239 9.486 12.006 16.067 14.422 16.823 4.209 1.319 10.864-5.6 14.392-10.968s.86-11.4.874-13.8 7.93-7.678 10.864-9.353 5.665-9.293 4.479-16.689z" class="cls-4" data-name="Path 3075" transform="translate(-95.733 -121.029)"/>
        </clipPath>
        <clipPath id="clip-path-5">
            <path id="Path_3102" d="M182.849 171.54s10.509 7.159 10.746 24.071c.1 7.411-.667 14.333-2.372 26.472s-12.287 51.669-20.528 56.471-21.032-4.269-21.032-4.269L87.8 233.214l-14.955-12.08-7.415-13.992 2.327-4.447L86 216.687l-9.824-9.087 1.927-2.446 3.557 2.475 10.375 3.883 2.265 14.824 3.2 2.194 59.184 21.625s-.741-31.852-.193-37.944 1.3-21.4 7.826-32.5" class="cls-5" data-name="Path 3102" transform="translate(-65.43 -171.54)"/>
        </clipPath>
    </defs>
    <g id="Mobile" transform="translate(.04 -.036)">
        <g id="Background_simple" data-name="Background simple" transform="translate(-.04 .036)">
            <path id="Path_3041" d="M584.839 131.538C547.963 47.453 459.446 15.794 389.605 72.25c-27.272 22.025-44.288 57.079-77.681 71.145-31.333 13.191-71.026 9.308-104.909 16.452-72.153 15.119-169.296 72.48-161.885 160.863 3.246 38.715 29.362 81.713 42.272 117.938 14.822 41.679 23.715 93.823 62.949 118.738 67.262 42.776 148.4 7.811 208.989-26.679 32.608-18.542 50.557-29.94 85.67-23.582 32.5 5.929 61.778 26.679 93.541 2.06 23.848-18.483 25.82-55.938 45.844-77.933 22.559-24.782 45.429-26.576 57.153-63.823 14.214-45.192-6.729-73.428-20.884-113.8s-18.453-82.529-35.825-122.091z" class="cls-6" data-name="Path 3041" transform="translate(-44.73 -43.816)"/>
            <g id="Group_822" class="cls-7" data-name="Group 822">
                <path id="Path_3042" d="M584.839 131.538C547.963 47.453 459.446 15.794 389.605 72.25c-27.272 22.025-44.288 57.079-77.681 71.145-31.333 13.191-71.026 9.308-104.909 16.452-72.153 15.119-169.296 72.48-161.885 160.863 3.246 38.715 29.362 81.713 42.272 117.938 14.822 41.679 23.715 93.823 62.949 118.738 67.262 42.776 148.4 7.811 208.989-26.679 32.608-18.542 50.557-29.94 85.67-23.582 32.5 5.929 61.778 26.679 93.541 2.06 23.848-18.483 25.82-55.938 45.844-77.933 22.559-24.782 45.429-26.576 57.153-63.823 14.214-45.192-6.729-73.428-20.884-113.8s-18.453-82.529-35.825-122.091z" class="cls-8" data-name="Path 3042" transform="translate(-44.73 -43.816)"/>
            </g>
        </g>
        <g id="Shadow" transform="translate(30.345 553.802)">
            <ellipse id="Ellipse_564" cx="229.117" cy="14.273" class="cls-6" data-name="Ellipse 564" rx="229.117" ry="14.273" transform="translate(0 1.482)"/>
            <ellipse id="Ellipse_565" cx="229.117" cy="14.273" class="cls-9" data-name="Ellipse 565" rx="229.117" ry="14.273" transform="translate(14.822)"/>
        </g>
        <g id="Device" transform="translate(172.457 26.795)">
            <rect id="Rectangle_507" width="287.974" height="543.963" class="cls-10" data-name="Rectangle 507" rx="19.43"/>
            <path id="Rectangle_508" d="M0 0h262.377v424.499H0z" class="cls-11" data-name="Rectangle 508" transform="translate(12.806 59.717)"/>
            <circle id="Ellipse_566" cx="56.872" cy="56.872" r="56.872" class="cls-12" data-name="Ellipse 566" transform="rotate(-45 262.822 18.956)"/>
            <path id="Path_3043" d="M358.04 372.214H208.724a2.549 2.549 0 0 1-2.564-2.549 2.549 2.549 0 0 1 2.564-2.564H358.04a2.549 2.549 0 0 1 2.549 2.564 2.549 2.549 0 0 1-2.549 2.549z" class="cls-13" data-name="Path 3043" transform="translate(-139.387 85.308)"/>
            <rect id="Rectangle_509" width="170.941" height="30.637" class="cls-6" data-name="Rectangle 509" rx="4.01" transform="translate(58.517 280.237)"/>
            <rect id="Rectangle_510" width="170.941" height="30.637" class="cls-6" data-name="Rectangle 510" rx="4.01" transform="translate(58.517 337.554)"/>
            <path id="Path_3044" d="M297.877 233.548l-16.734-9.634v-7.959a26.176 26.176 0 0 0 5.143-10.034 5.4 5.4 0 0 0 1.793.311c2.075 0 3.394-6.433 3.617-11.027 2.416-5.113-.875-8.108-.875-8.108s1.364-1.364 2.268-6.833-3.187-3.187-6.373-8.2-5.469-10.464-15.933-10.464a14.377 14.377 0 0 0-13.666 8.656 34.618 34.618 0 0 0-7.737.9c-3.2.9-4.106 11.383-1.378 15.489a15.608 15.608 0 0 1 1.9 7.307c-.726-.889-1.482-1.126-1.9.889-.9 4.55 2.742 10.924 2.742 10.924l1.882-.534a26.68 26.68 0 0 0 5.351 10.716v7.959l-16.734 9.634a12.866 12.866 0 0 0-6.433 11.131v5.514a56.842 56.842 0 0 0 69.5 0v-5.514a12.836 12.836 0 0 0-6.433-11.123z" class="cls-14" data-name="Path 3044" transform="translate(-125.573 -13.784)"/>
            <path id="Path_3045" d="M216.9 310.154a1.483 1.483 0 0 1-1.023-.43 1.378 1.378 0 0 1-.459-1.038 1.483 1.483 0 0 1 .222-.756l2.668-4.269-5.2.163a1.394 1.394 0 0 1-1.067-.4 1.482 1.482 0 0 1 0-1.971 1.349 1.349 0 0 1 1.067-.415l5.128.193-2.638-4.254a1.483 1.483 0 0 1-.222-.771 1.378 1.378 0 0 1 .459-1.038 1.482 1.482 0 0 1 1.023-.43 1.334 1.334 0 0 1 1.2.771l2.535 4.58 2.5-4.55a1.482 1.482 0 0 1 1.289-.83 1.349 1.349 0 0 1 .993.445 1.511 1.511 0 0 1 .222 1.779l-2.683 4.3 5.2-.193a1.349 1.349 0 0 1 1.067.415 1.379 1.379 0 0 1 .385.978 1.482 1.482 0 0 1-.385.993 1.394 1.394 0 0 1-1.067.4l-5.232-.163 2.609 4.224a1.486 1.486 0 0 1-1.26 2.268 1.3 1.3 0 0 1-1.186-.8l-2.475-4.447-2.46 4.447a1.393 1.393 0 0 1-1.21.799z" class="cls-10" data-name="Path 3045" transform="translate(-136.732 50.403)"/>
            <path id="Path_3046" d="M233.131 310.154a1.483 1.483 0 0 1-1.023-.43 1.379 1.379 0 0 1-.459-1.038 1.482 1.482 0 0 1 .222-.756l2.668-4.269-5.188.163a1.483 1.483 0 0 1-1.082-.4 1.408 1.408 0 0 1 1.082-2.386l5.114.193-2.638-4.254a1.483 1.483 0 0 1-.222-.771 1.378 1.378 0 0 1 .46-1.038 1.482 1.482 0 0 1 1.023-.43 1.334 1.334 0 0 1 1.2.771l2.535 4.58 2.5-4.55a1.482 1.482 0 0 1 1.289-.83 1.319 1.319 0 0 1 .993.445 1.45 1.45 0 0 1 .222 1.779l-2.683 4.3 5.217-.163a1.319 1.319 0 0 1 1.052.415 1.378 1.378 0 0 1 .385.978 1.482 1.482 0 0 1-.385.993 1.364 1.364 0 0 1-1.052.4l-5.247-.163 2.609 4.224a1.486 1.486 0 0 1-1.26 2.268 1.3 1.3 0 0 1-1.186-.8l-2.475-4.447-2.46 4.447a1.393 1.393 0 0 1-1.215.771z" class="cls-10" data-name="Path 3046" transform="translate(-128.918 50.403)"/>
            <path id="Path_3047" d="M249.361 310.154a1.482 1.482 0 0 1-1.037-.43 1.378 1.378 0 0 1-.459-1.038 1.482 1.482 0 0 1 .222-.756l2.668-4.269-5.188.163a1.408 1.408 0 0 1-1.082-2.372 1.394 1.394 0 0 1 1.082-.415l5.113.193-2.638-4.254a1.487 1.487 0 0 1 1.275-2.238 1.334 1.334 0 0 1 1.186.771l2.535 4.58 2.5-4.55a1.482 1.482 0 0 1 1.29-.83 1.319 1.319 0 0 1 .993.445 1.451 1.451 0 0 1 .222 1.779l-2.683 4.3 5.217-.193a1.349 1.349 0 0 1 1.482 1.393 1.482 1.482 0 0 1-.371.993 1.394 1.394 0 0 1-1.067.4l-5.232-.163 2.594 4.224a1.439 1.439 0 0 1-.237 1.823 1.393 1.393 0 0 1-1.008.445 1.29 1.29 0 0 1-1.171-.8l-2.49-4.447-2.46 4.447a1.378 1.378 0 0 1-1.26.8z" class="cls-10" data-name="Path 3047" transform="translate(-121.092 50.403)"/>
            <path id="Path_3048" d="M265.578 310.154a1.493 1.493 0 0 1-1.482-1.467 1.392 1.392 0 0 1 .207-.756l2.668-4.269-5.188.163a1.4 1.4 0 1 1 0-2.786l5.128.193-2.623-4.254a1.487 1.487 0 0 1 1.275-2.238 1.334 1.334 0 0 1 1.2.771l2.52 4.58 2.5-4.55a1.482 1.482 0 0 1 1.29-.83 1.319 1.319 0 0 1 .993.445 1.45 1.45 0 0 1 .222 1.779l-2.683 4.3 5.217-.193a1.349 1.349 0 0 1 1.482 1.393 1.482 1.482 0 0 1-.37.993 1.394 1.394 0 0 1-1.067.4l-5.232-.163 2.594 4.224a1.481 1.481 0 0 1 .222.786 1.378 1.378 0 0 1-.46 1.038 1.393 1.393 0 0 1-1.008.445 1.29 1.29 0 0 1-1.171-.8l-2.49-4.447-2.46 4.447a1.378 1.378 0 0 1-1.289.8z" class="cls-10" data-name="Path 3048" transform="translate(-113.269 50.403)"/>
            <path id="Path_3049" d="M281.8 310.154a1.469 1.469 0 0 1-1.26-2.223l2.653-4.269-5.188.163a1.4 1.4 0 1 1 0-2.786l5.128.193-2.638-4.254a1.476 1.476 0 0 1 1.26-2.238 1.334 1.334 0 0 1 1.2.771l2.52 4.58 2.5-4.55a1.482 1.482 0 0 1 1.289-.83 1.349 1.349 0 0 1 1.008.445 1.472 1.472 0 0 1 .208 1.779l-2.683 4.3 5.217-.193a1.349 1.349 0 0 1 1.482 1.393 1.482 1.482 0 0 1-.371.993 1.394 1.394 0 0 1-1.067.4l-5.232-.163 2.594 4.224a1.482 1.482 0 0 1 .222.786 1.378 1.378 0 0 1-.459 1.038 1.393 1.393 0 0 1-1.008.445 1.289 1.289 0 0 1-1.171-.8l-2.49-4.447-2.46 4.447a1.378 1.378 0 0 1-1.254.796z" class="cls-10" data-name="Path 3049" transform="translate(-105.448 50.403)"/>
            <path id="Path_3050" d="M298.027 310.154a1.482 1.482 0 0 1-1.023-.43 1.379 1.379 0 0 1-.459-1.038 1.482 1.482 0 0 1 .222-.756l2.653-4.269-5.188.163a1.4 1.4 0 0 1-1.082-2.372 1.349 1.349 0 0 1 1.067-.415l5.128.193-2.638-4.254a1.476 1.476 0 0 1 1.26-2.238 1.334 1.334 0 0 1 1.2.771l2.52 4.58 2.52-4.55a1.482 1.482 0 0 1 1.275-.83 1.349 1.349 0 0 1 1.008.445 1.511 1.511 0 0 1 .222 1.779l-2.683 4.3 5.2-.193a1.349 1.349 0 0 1 1.067.415 1.379 1.379 0 0 1 .385.978 1.482 1.482 0 0 1-.385.993 1.394 1.394 0 0 1-1.067.4l-5.229-.164 2.594 4.224a1.5 1.5 0 0 1-1.245 2.268 1.29 1.29 0 0 1-1.171-.8l-2.49-4.447-2.46 4.447a1.378 1.378 0 0 1-1.2.8z" class="cls-10" data-name="Path 3050" transform="translate(-97.635 50.403)"/>
            <path id="Rectangle_511" d="M0 0h262.377v16.437H0z" class="cls-6" data-name="Rectangle 511" transform="translate(12.806 60.281)"/>
            <path id="Path_3051" d="M297.328 84.637h-57.065a3.883 3.883 0 0 1-3.883-3.883 3.883 3.883 0 0 1 3.883-3.883h57.064a3.883 3.883 0 0 1 3.883 3.883 3.883 3.883 0 0 1-3.882 3.883z" class="cls-15" data-name="Path 3051" transform="translate(-124.816 -54.637)"/>
            <path id="Path_3052" d="M278.876 409.808a15.563 15.563 0 1 0-15.548 15.548 15.563 15.563 0 0 0 15.548-15.548z" class="cls-6" data-name="Path 3052" transform="translate(-119.333 98.39)"/>
            <path id="Rectangle_512" d="M0 0h15.77v15.77H0z" class="cls-15" data-name="Rectangle 512" transform="translate(136.109 500.313)"/>
        </g>
        <g id="Plant" transform="translate(436.859 286.661)">
            <path id="Path_3053" d="M406.941 306.568s-20.662-52.5-2.268-58.739c19.15-6.507 18.305 28.162 17.564 45.059-1.556 36.106-5.543 42.82-8.523 34zm-6.21 40.953c5.677 7.411 7.278-.267-2.964-34.935-4.8-16.3-15.237-49.283-31.245-36.906-15.37 11.857 21.21 54.841 21.21 54.841zm-10.968 30.089c5.41 4.8 5.514-1.26-7.337-26.294-6.032-11.724-18.794-35.454-29.244-23.715-10.034 11.324 24.16 38.848 24.16 38.848zm-11.858 35.78c5.41 4.817 5.514-1.26-7.337-26.279-6.033-11.724-18.794-35.469-29.244-23.715-9.975 11.354 24.115 38.878 24.115 38.878zm34.239-72.835c-8.656 3.379-1.779 7.055 34.372 6.951 16.956 0 51.58-.771 44.2-19.609-7.07-18.1-58.561 4.951-58.561 4.951zm-9.857 24.071c-9.16 1.586-3.142 6.566 32.312 13.651 16.615 3.335 50.691 9.486 47.208-10.375-3.335-19.15-58.383-6.788-58.383-6.788zm-11.027 29.392c-7.8 1.126-2.816 5.469 26.991 12.287 13.977 3.2 42.657 9.2 40.167-7.737-2.372-16.3-49.209-7.085-49.209-7.085zm-8.374 27.228c-7.633 1.942-2.223 5.736 28.162 9.353 14.229 1.69 43.384 4.624 39.13-11.961-4.106-15.919-49.7-1.823-49.7-1.823zm44.673-110.23c-4.446 9.96 4.788 8.448 36.18-18.942 14.7-12.851 44.2-39.737 20.84-53.122-22.425-12.865-46.541 49.209-46.541 49.209zm-43.517 145.7c-4.7 2.742-.089 3.809 21.462-.489 10.109-2 30.666-6.448 23.715-15.222-6.729-8.448-34.3 9.338-34.3 9.338z" class="cls-16" data-name="Path 3053" transform="translate(-339.496 -237.196)"/>
            <path id="Path_3054" d="M406.941 306.568s-20.662-52.5-2.268-58.739c19.15-6.507 18.305 28.162 17.564 45.059-1.556 36.106-5.543 42.82-8.523 34zm-6.21 40.953c5.677 7.411 7.278-.267-2.964-34.935-4.8-16.3-15.237-49.283-31.245-36.906-15.37 11.857 21.21 54.841 21.21 54.841zm-10.968 30.089c5.41 4.8 5.514-1.26-7.337-26.294-6.032-11.724-18.794-35.454-29.244-23.715-10.034 11.324 24.16 38.848 24.16 38.848zm-11.858 35.78c5.41 4.817 5.514-1.26-7.337-26.279-6.033-11.724-18.794-35.469-29.244-23.715-9.975 11.354 24.115 38.878 24.115 38.878zm34.239-72.835c-8.656 3.379-1.779 7.055 34.372 6.951 16.956 0 51.58-.771 44.2-19.609-7.07-18.1-58.561 4.951-58.561 4.951zm-9.857 24.071c-9.16 1.586-3.142 6.566 32.312 13.651 16.615 3.335 50.691 9.486 47.208-10.375-3.335-19.15-58.383-6.788-58.383-6.788zm-11.027 29.392c-7.8 1.126-2.816 5.469 26.991 12.287 13.977 3.2 42.657 9.2 40.167-7.737-2.372-16.3-49.209-7.085-49.209-7.085zm-8.374 27.228c-7.633 1.942-2.223 5.736 28.162 9.353 14.229 1.69 43.384 4.624 39.13-11.961-4.106-15.919-49.7-1.823-49.7-1.823zm44.673-110.23c-4.446 9.96 4.788 8.448 36.18-18.942 14.7-12.851 44.2-39.737 20.84-53.122-22.425-12.865-46.541 49.209-46.541 49.209zm-43.517 145.7c-4.7 2.742-.089 3.809 21.462-.489 10.109-2 30.666-6.448 23.715-15.222-6.729-8.448-34.3 9.338-34.3 9.338z" class="cls-17" data-name="Path 3054" transform="translate(-339.496 -237.196)"/>
            <path id="Path_3055" d="M408.635 323.613l-3.6-59.925m-7.8 79.7l-22.765-51.539m81.52 36.551l-54.559 7.826m-15.993 34.935l-29.54-37.9m34.728 26.279l40.7 2.045m-50.335 27.02l31.126 3.083m-38.641 15.385l-15.459-23.255m13.683 31.468l36.6.341m-44.006 68.314a.934.934 0 0 0 .86-.993c-2.327-34.95 11.19-92.192 32.875-139.178 13.859-30.029 68.181-89.05 68.759-89.643a.934.934 0 0 0 0-1.319.919.919 0 0 0-1.3 0c-.549.593-55.093 59.836-69.07 90.132-22.085 48.127-35.424 104.331-33.053 140.126a.949.949 0 0 0 .934.874zm44.326-159.41a.934.934 0 0 0 .874-.978l-3.542-59.953a.919.919 0 0 0-.978-.875.934.934 0 0 0-.874.978l3.6 59.925a.919.919 0 0 0 .919.875zm-11.057 19.7a.934.934 0 0 0 .474-1.215l-22.781-51.536a.923.923 0 0 0-1.69.741l22.766 51.536a.933.933 0 0 0 .845.563.918.918 0 0 0 .445-.089zm3.943-7.114l54.53-7.8a.934.934 0 1 0-.252-1.838l-54.53 7.8a.921.921 0 0 0 .119 1.838zM385.957 371.9a.934.934 0 0 0 .163-1.3l-29.555-37.974a.935.935 0 1 0-1.482 1.141L384.7 371.8a.919.919 0 0 0 .726.356.934.934 0 0 0 .593-.252zm46.185-10.272a.934.934 0 0 0-.889-.964l-40.627-2.06a.934.934 0 0 0-.089 1.853l40.7 2.06a.934.934 0 0 0 .963-.889zm-19.165 30.148a.919.919 0 0 0-.83-1.023l-31.126-3.068a.919.919 0 0 0-1.008.83.934.934 0 0 0 .83 1.008l31.126 3.083h.089a.919.919 0 0 0 .978-.83zm-39.056 16.067a.934.934 0 0 0 .267-1.289L358.8 383.3a.949.949 0 0 0-1.29-.252.934.934 0 0 0-.267 1.289l15.385 23.255a.963.963 0 0 0 .785.415.888.888 0 0 0 .563-.163zm35.306 7.781a.949.949 0 0 0-.919-.934l-36.6-.341a.919.919 0 0 0-.919.919.9.9 0 0 0 .919.934l36.6.341a.934.934 0 0 0 .978-.919zm-49.1 54.722c.074-.163 6.314-17.356 25.079-21.462a.934.934 0 0 0 .711-1.112.949.949 0 0 0-1.112-.7c-19.787 4.328-26.353 22.485-26.427 22.663a.949.949 0 0 0 .578 1.186h.3a.919.919 0 0 0 .934-.578zm4.165 13.592a.934.934 0 0 0 .86-.993c-2.327-34.95 11.19-92.192 32.875-139.178 13.859-30.029 68.181-89.05 68.759-89.643a.934.934 0 0 0 0-1.319.919.919 0 0 0-1.3 0c-.549.593-55.093 59.836-69.07 90.132-22.085 48.127-35.424 104.331-33.053 140.126a.949.949 0 0 0 .934.874zm44.328-159.407a.934.934 0 0 0 .874-.978l-3.542-59.953a.919.919 0 0 0-.978-.875.934.934 0 0 0-.874.978l3.6 59.925a.919.919 0 0 0 .919.875zm-11.057 19.7a.934.934 0 0 0 .474-1.215l-22.781-51.536a.923.923 0 0 0-1.69.741l22.766 51.536a.934.934 0 0 0 .845.563.918.918 0 0 0 .445-.089zm3.943-7.114l54.53-7.8a.934.934 0 1 0-.252-1.838l-54.53 7.8a.921.921 0 0 0 .119 1.838zM385.957 371.9a.934.934 0 0 0 .163-1.3l-29.555-37.974a.935.935 0 0 0-1.482 1.141L384.7 371.8a.919.919 0 0 0 .726.356.934.934 0 0 0 .593-.252zm46.185-10.272a.934.934 0 0 0-.889-.964l-40.627-2.06a.934.934 0 0 0-.089 1.853l40.7 2.06a.934.934 0 0 0 .963-.889zm-19.165 30.148a.919.919 0 0 0-.83-1.023l-31.126-3.068a.919.919 0 0 0-1.008.83.934.934 0 0 0 .83 1.008l31.126 3.083h.089a.919.919 0 0 0 .978-.83zm-39.056 16.067a.934.934 0 0 0 .267-1.29L358.8 383.3a.948.948 0 0 0-1.289-.252.934.934 0 0 0-.267 1.289l15.385 23.255a.963.963 0 0 0 .786.415.889.889 0 0 0 .563-.163zm35.306 7.781a.949.949 0 0 0-.919-.934l-36.6-.341a.919.919 0 0 0-.919.919.9.9 0 0 0 .919.934l36.6.341a.934.934 0 0 0 .978-.919zm-49.1 54.722c.074-.163 6.314-17.356 25.079-21.462a.934.934 0 0 0 .711-1.112.949.949 0 0 0-1.112-.7c-19.787 4.328-26.353 22.485-26.427 22.663a.948.948 0 0 0 .578 1.186h.3a.919.919 0 0 0 .933-.578z" class="cls-18" data-name="Path 3055" transform="translate(-332.074 -229.798)"/>
            <path id="Path_3056" d="M408.635 323.613l-3.6-59.925m-7.8 79.7l-22.765-51.539m81.52 36.551l-54.559 7.826m-15.993 34.935l-29.54-37.9m34.728 26.279l40.7 2.045m-50.335 27.02l31.126 3.083m-38.641 15.385l-15.459-23.255m13.683 31.468l36.6.341m-44.006 68.314a.934.934 0 0 0 .86-.993c-2.327-34.95 11.19-92.192 32.875-139.178 13.859-30.029 68.181-89.05 68.759-89.643a.934.934 0 0 0 0-1.319.919.919 0 0 0-1.3 0c-.549.593-55.093 59.836-69.07 90.132-22.085 48.127-35.424 104.331-33.053 140.126a.949.949 0 0 0 .934.874zm44.326-159.41a.934.934 0 0 0 .874-.978l-3.542-59.953a.919.919 0 0 0-.978-.875.934.934 0 0 0-.874.978l3.6 59.925a.919.919 0 0 0 .919.875zm-11.057 19.7a.934.934 0 0 0 .474-1.215l-22.781-51.536a.923.923 0 0 0-1.69.741l22.766 51.536a.933.933 0 0 0 .845.563.918.918 0 0 0 .445-.089zm3.943-7.114l54.53-7.8a.934.934 0 1 0-.252-1.838l-54.53 7.8a.921.921 0 0 0 .119 1.838zM385.957 371.9a.934.934 0 0 0 .163-1.3l-29.555-37.974a.935.935 0 1 0-1.482 1.141L384.7 371.8a.919.919 0 0 0 .726.356.934.934 0 0 0 .593-.252zm46.185-10.272a.934.934 0 0 0-.889-.964l-40.627-2.06a.934.934 0 0 0-.089 1.853l40.7 2.06a.934.934 0 0 0 .963-.889zm-19.165 30.148a.919.919 0 0 0-.83-1.023l-31.126-3.068a.919.919 0 0 0-1.008.83.934.934 0 0 0 .83 1.008l31.126 3.083h.089a.919.919 0 0 0 .978-.83zm-39.056 16.067a.934.934 0 0 0 .267-1.289L358.8 383.3a.949.949 0 0 0-1.29-.252.934.934 0 0 0-.267 1.289l15.385 23.255a.963.963 0 0 0 .785.415.888.888 0 0 0 .563-.163zm35.306 7.781a.949.949 0 0 0-.919-.934l-36.6-.341a.919.919 0 0 0-.919.919.9.9 0 0 0 .919.934l36.6.341a.934.934 0 0 0 .978-.919zm-49.1 54.722c.074-.163 6.314-17.356 25.079-21.462a.934.934 0 0 0 .711-1.112.949.949 0 0 0-1.112-.7c-19.787 4.328-26.353 22.485-26.427 22.663a.949.949 0 0 0 .578 1.186h.3a.919.919 0 0 0 .934-.578zm4.165 13.592a.934.934 0 0 0 .86-.993c-2.327-34.95 11.19-92.192 32.875-139.178 13.859-30.029 68.181-89.05 68.759-89.643a.934.934 0 0 0 0-1.319.919.919 0 0 0-1.3 0c-.549.593-55.093 59.836-69.07 90.132-22.085 48.127-35.424 104.331-33.053 140.126a.949.949 0 0 0 .934.874zm44.328-159.407a.934.934 0 0 0 .874-.978l-3.542-59.953a.919.919 0 0 0-.978-.875.934.934 0 0 0-.874.978l3.6 59.925a.919.919 0 0 0 .919.875zm-11.057 19.7a.934.934 0 0 0 .474-1.215l-22.781-51.536a.923.923 0 0 0-1.69.741l22.766 51.536a.934.934 0 0 0 .845.563.918.918 0 0 0 .445-.089zm3.943-7.114l54.53-7.8a.934.934 0 1 0-.252-1.838l-54.53 7.8a.921.921 0 0 0 .119 1.838zM385.957 371.9a.934.934 0 0 0 .163-1.3l-29.555-37.974a.935.935 0 0 0-1.482 1.141L384.7 371.8a.919.919 0 0 0 .726.356.934.934 0 0 0 .593-.252zm46.185-10.272a.934.934 0 0 0-.889-.964l-40.627-2.06a.934.934 0 0 0-.089 1.853l40.7 2.06a.934.934 0 0 0 .963-.889zm-19.165 30.148a.919.919 0 0 0-.83-1.023l-31.126-3.068a.919.919 0 0 0-1.008.83.934.934 0 0 0 .83 1.008l31.126 3.083h.089a.919.919 0 0 0 .978-.83zm-39.056 16.067a.934.934 0 0 0 .267-1.29L358.8 383.3a.948.948 0 0 0-1.289-.252.934.934 0 0 0-.267 1.289l15.385 23.255a.963.963 0 0 0 .786.415.889.889 0 0 0 .563-.163zm35.306 7.781a.949.949 0 0 0-.919-.934l-36.6-.341a.919.919 0 0 0-.919.919.9.9 0 0 0 .919.934l36.6.341a.934.934 0 0 0 .978-.919zm-49.1 54.722c.074-.163 6.314-17.356 25.079-21.462a.934.934 0 0 0 .711-1.112.949.949 0 0 0-1.112-.7c-19.787 4.328-26.353 22.485-26.427 22.663a.948.948 0 0 0 .578 1.186h.3a.919.919 0 0 0 .933-.578z" class="cls-19" data-name="Path 3056" transform="translate(-332.074 -229.798)"/>
            <path id="Path_3057" d="M346.441 347.26H304.48v8.671h3.661l7.574 47.4h19.491l7.589-47.4h3.646z" class="cls-20" data-name="Path 3057" transform="translate(-290.023 -119.234)"/>
            <path id="Path_3058" d="M346.441 347.26H304.48v8.671h3.661l7.574 47.4h19.491l7.589-47.4h3.646z" class="cls-21" data-name="Path 3058" transform="translate(-290.023 -119.234)"/>
        </g>
        <g id="Character" transform="translate(23.068 104.106)">
            <path id="Path_3059" d="M104.281 180.191l-48.794-15.934-4.343-11.487-9.931-.311-17.993-3.409 2.179 3.72 22.633 16.452 5.588 2.786 51.061 26.65z" class="cls-22" data-name="Path 3059" transform="translate(-11.852 -32.253)"/>
            <path id="Path_3060" d="M46.6 152.466l-4.654-2.786-9.308 3.409 1.556 1.868z" class="cls-23" data-name="Path 3060" transform="translate(-7.31 -31.95)"/>
            <path id="Path_3061" d="M104.281 180.191l-48.794-15.934-4.343-11.487-9.931-.311-17.993-3.409 2.179 3.72 22.633 16.452 5.588 2.786 51.061 26.65z" class="cls-24" data-name="Path 3061" transform="translate(-11.852 -32.253)"/>
            <g id="Group_823" class="cls-25" data-name="Group 823" transform="translate(11.368 116.797)">
                <path id="Path_3062" d="M104.281 180.191l-48.794-15.934-4.343-11.487-9.931-.311-17.993-3.409 2.179 3.72 22.633 16.452 5.588 2.786 51.061 26.65z" class="cls-26" data-name="Path 3062" transform="translate(-23.22 -149.05)"/>
            </g>
            <path id="Path_3064" d="M104.281 180.191l-48.794-15.934-4.343-11.487-9.931-.311-17.993-3.409 2.179 3.72 22.633 16.452 5.588 2.786 51.061 26.65z" class="cls-27" data-name="Path 3064" transform="translate(-11.852 -32.253)"/>
            <path id="Path_3065" d="M46.6 152.466l-4.654-2.786-9.308 3.409 1.556 1.868z" class="cls-24" data-name="Path 3065" transform="translate(-7.31 -31.95)"/>
            <g id="Group_824" class="cls-28" data-name="Group 824" transform="translate(25.33 117.73)">
                <path id="Path_3066" d="M46.6 152.466l-4.654-2.786-9.308 3.409 1.556 1.868z" class="cls-29" data-name="Path 3066" transform="translate(-32.64 -149.68)"/>
            </g>
            <path id="Path_3068" d="M46.6 152.466l-4.654-2.786-9.308 3.409 1.556 1.868z" class="cls-30" data-name="Path 3068" transform="translate(-7.31 -31.95)"/>
            <path id="Path_3069" d="M135.308 145.175s-.756 6.67 1.126 10.953 12.332 18.794 12.332 18.794L129.26 190.56s-8.093-16.3-9.634-18.942-3.394-13.992 1.63-22.129 12.258-10.331 14.052-4.314z" class="cls-31" data-name="Path 3069" transform="translate(-32.518 -100.665)"/>
            <g id="Group_825" class="cls-32" data-name="Group 825" transform="translate(85.46 41.082)">
                <path id="Path_3070" d="M79.615 114.75l8.463 17.534-4.49 6.416-8.508-15.175z" class="cls-33" data-name="Path 3070" transform="translate(-72.306 -89.874)"/>
            </g>
            <path id="Path_3072" d="M135.308 145.175s-.756 6.67 1.126 10.953 12.332 18.794 12.332 18.794L129.26 190.56s-8.093-16.3-9.634-18.942-3.394-13.992 1.63-22.129 12.258-10.331 14.052-4.314z" class="cls-34" data-name="Path 3072" transform="translate(-32.518 -100.665)"/>
            <path id="Path_3073" d="M152.081 142.952c-1.2-7.411-9.694-22.485-23.167-21.907-8.745.385-12.836 2.149-16.63 4.3a48.911 48.911 0 0 0-8.6 6.433c-6.581 7.9-8.893 10.064-7.618 16.111a18.142 18.142 0 0 0 1.112 7.085c2.016 5.38 3.394 8.893 5.143 11.457-.534 2.5-1.927 9.115-2 10.627s4.447.459 6.729-.119c4.239 9.486 12.006 16.067 14.422 16.823 4.209 1.319 10.864-5.6 14.392-10.968s.86-11.4.874-13.8 7.93-7.678 10.864-9.353 5.665-9.293 4.479-16.689z" class="cls-31" data-name="Path 3073" transform="translate(-43.245 -110.655)"/>
            <g id="Group_826" class="cls-35" data-name="Group 826" transform="translate(52.489 10.374)">
                <path id="Path_3074" d="M96.113 145.616a18.142 18.142 0 0 0 1.112 7.085c2.016 5.38 3.394 8.893 5.143 11.457-.534 2.5-1.927 9.115-2 10.627s4.447.459 6.729-.119c4.239 9.486 12.006 16.067 14.422 16.823 4.209 1.319 10.864-5.6 14.392-10.968a10.8 10.8 0 0 0 1.675-4.447c-.193-.7-.326-1.126-.326-1.126s-1.986 7.633-5.929 6.64-9.975-8.893-13.34-11.62-1.986-6.314-2.653-10.375-10.627-7.633-11.294-9.96 1.66-11.961 1.66-11.961 3.78-5.039 2.964-2.964a14.11 14.11 0 0 0 .993 10.953 7.559 7.559 0 0 0 6.981 4.313l3.617-17.92-7.633-6.314-8.893 3.705c-6.642 7.955-8.91 10.124-7.62 16.171z" class="cls-36" data-name="Path 3074" transform="translate(-95.717 -118.758)"/>
            </g>
            <path id="Path_3076" d="M152.081 142.952c-1.2-7.411-9.694-22.485-23.167-21.907-8.745.385-12.836 2.149-16.63 4.3a48.911 48.911 0 0 0-8.6 6.433c-6.581 7.9-8.893 10.064-7.618 16.111a18.142 18.142 0 0 0 1.112 7.085c2.016 5.38 3.394 8.893 5.143 11.457-.534 2.5-1.927 9.115-2 10.627s4.447.459 6.729-.119c4.239 9.486 12.006 16.067 14.422 16.823 4.209 1.319 10.864-5.6 14.392-10.968s.86-11.4.874-13.8 7.93-7.678 10.864-9.353 5.665-9.293 4.479-16.689z" class="cls-34" data-name="Path 3076" transform="translate(-43.245 -110.655)"/>
            <path id="Path_3080" d="M138.262 118.521a105.32 105.32 0 0 0-13.947-1.067s-13.962-8.048-27.376.534-6.966 23.611-6.966 27.361-4.3 3.765-1.616 8.6 11.754 2.164 11.754 2.164a12.9 12.9 0 0 1 4.847-9.412c4.832-3.75 8.686-4.565 10.286-3.483 0 0-1.067 8.048.534 11.265 0 0 5.366 2.683 6.981 2.683s-1.052 2.268 4.3 4.283a6.7 6.7 0 0 0 5.929-.7c.786-3.261 2.5-8.167 5.706-7.026 4.7 1.675 8.982 13.236 2.623 17.179 7.648 1.393 16.912-12.139 17.46-24.471s-12.57-26.517-20.515-27.91z" class="cls-37" data-name="Path 3080" transform="translate(-47.226 -114.03)"/>
            <path id="Path_3081" d="M106.37 130.311s3.943-2.12 8.775 2.416 14.229 10.6 26.679 7.263" class="cls-38" data-name="Path 3081" transform="translate(-38.116 -106.418)"/>
            <path id="Path_3082" d="M106 129.079s2.712-4.239 7.248-4.239 15.133 6.359 23.6 6.359" class="cls-38" data-name="Path 3082" transform="translate(-38.294 -108.817)"/>
            <path id="Path_3083" d="M108.051 134.255s-5.143-6.344-9.975-1.2-1.764 10-1.764 10" class="cls-38" data-name="Path 3083" transform="translate(-43.428 -105.826)"/>
            <path id="Path_3084" d="M90.05 142.385a15.711 15.711 0 0 0 5.128-10.285c.608-6.655 9.694-12.406 15.43-6.951" class="cls-38" data-name="Path 3084" transform="translate(-45.985 -109.717)"/>
            <path id="Path_3085" d="M96.37 120.8s9.086-8.775 16.645 2.416" class="cls-38" data-name="Path 3085" transform="translate(-42.938 -112.341)"/>
            <path id="Path_3086" d="M162.15 410.81s5.588 8.686 4.965 14.274l-.608 5.588s-20.5 5.617-24.841 5.617-27.332-2.179-27.332-2.179l-.993-3.943a1.3 1.3 0 0 1 .711-1.482l20.5-9.56 6.462-7.07z" class="cls-39" data-name="Path 3086" transform="translate(-34.771 29.074)"/>
            <path id="Path_3087" d="M144.676 426.718c5.558.43 16.111-2.964 22.233-5.128l-.43 3.883s-20.573 5.617-24.916 5.617-27.332-2.179-27.332-2.179l-.711-2.816c3.68.016 23.804.06 31.156.623z" class="cls-40" data-name="Path 3087" transform="translate(-34.668 34.272)"/>
            <path id="Path_3088" d="M137.735 416.634L107.9 429.618s-2.549 6.388 0 7.663 58.131 0 58.131 0 3.839-10.094-2.223-16.867-26.073-3.78-26.073-3.78z" class="cls-39" data-name="Path 3088" transform="translate(-37.925 31.565)"/>
            <path id="Path_3089" d="M166.031 431.691s-55.582 1.275-58.131 0c-1.23-.623-1.275-2.416-.993-4.12h60.1a22.612 22.612 0 0 1-.978 4.12z" class="cls-40" data-name="Path 3089" transform="translate(-37.926 37.155)"/>
            <path id="Path_3090" d="M123 265.951s-7.8 34.55-10.746 56.16-4.684 64.905-4.061 69.87 31.66 88.161 31.66 88.161l3.1 7.411 21.729-4.343s-9.931-31.66-13.651-49.046-11.857-45.948-11.857-50.913 19.268-99.8 20.647-106.021 7.633-15.785 7.633-15.785l-41.605-.845z" class="cls-41" data-name="Path 3090" transform="translate(-37.298 -43.356)"/>
            <path id="Path_3091" d="M119.161 267.691s-4.565 31.556-2.683 53.492 5.929 68.64 5.929 75.592 11.22 48.468 11.858 61.511c.993 18.839-.4 28.161-.4 28.161l-.667 6.833s13.088 1.868 15.948 2.683a35.422 35.422 0 0 0 10.123 1.1s4.758-20.943 4.758-38.789-3.957-54.574-5.929-69.455 4.239-72.286 7.767-83 11.235-33.409 6.047-45-52.751 6.872-52.751 6.872z" class="cls-42" data-name="Path 3091" transform="translate(-33.461 -45.096)"/>
            <path id="Path_3092" d="M178.362 255.65l-.474 14.11s-8.448 1.675-19.832 3.646c-9.4 1.63-32.994-.43-40.938-1.2a2.757 2.757 0 0 1-2.5-2.964l.771-12.747z" class="cls-10" data-name="Path 3092" transform="translate(-34.145 -45.742)"/>
            <path id="Path_3093" d="M145.154 160.75s-13.34 14.422-18.364 23.389-7.011 22.707-8.893 33.527 3.216 36.225 1.779 47.889l-4.55 36.743s-.978 2.49 2.3 5.217 19.268 3.72 33.72 4.447c5.277.267 21.032-3.127 23.611-3.29 3.113-.193 3.216-4.15 3.35-7.263.622-14.629 3.261-53.626 4.995-70.611 3.568-34.639-15.982-68.077-37.948-70.048z" class="cls-22" data-name="Path 3093" transform="translate(-33.96 -91.502)"/>
            <path id="Path_3094" d="M180.617 230.6c.593-7.693 1.186-14.674 1.7-19.7.148-1.482.237-2.964.311-4.447l-35.439 5.929-30.439-10.372a168.646 168.646 0 0 0 1.067 18.854l29.866 8.359z" class="cls-13" data-name="Path 3094" transform="translate(-33.111 -71.607)"/>
            <path id="Path_3095" d="M137.647 161.73c-2.016 2.238-6.018 6.788-9.827 11.62l22.5 22.87 7.411-2.964z" class="cls-13" data-name="Path 3095" transform="translate(-27.773 -91.029)"/>
            <path id="Path_3096" d="M142.486 160.75s-13.34 14.422-18.364 23.389a45.489 45.489 0 0 0-3.6 8.567l26.828-30.993a25.2 25.2 0 0 0-4.864-.963z" class="cls-10" data-name="Path 3096" transform="translate(-31.293 -91.502)"/>
            <path id="Path_3097" d="M117.65 201.8l29.11 9.575 35.35-4.061a82.9 82.9 0 0 0-5.8-25.657l-28.5 11.428-25.476-11.545a134.1 134.1 0 0 0-4.684 20.26z" class="cls-13" data-name="Path 3097" transform="translate(-32.677 -81.477)"/>
            <path id="Path_3098" d="M168.828 247.743a90.132 90.132 0 0 1-44.08-3.6l-7.1-2.431-2.208 17.788 8.093 2.268a122.029 122.029 0 0 0 47.326 3.646l6.536-.786a5.93 5.93 0 0 0 .563-2.3c.178-3.957.489-9.708.889-16.3z" class="cls-13" data-name="Path 3098" transform="translate(-33.742 -52.464)"/>
            <path id="Path_3099" d="M171.8 231.624a89.79 89.79 0 0 1-44.08-3.616l-9.041-3.1a58.4 58.4 0 0 1-.133 9.694l-1.052 8.552 9.012 2.52a121.97 121.97 0 0 0 47.311 3.661l4.447-.534c.371-5.929.8-12.243 1.26-18.483z" class="cls-13" data-name="Path 3099" transform="translate(-32.754 -60.565)"/>
            <path id="Rectangle_513" d="M0 0h36.773v1.971H0z" class="cls-10" data-name="Rectangle 513" transform="rotate(-141.17 37.49 60.662)"/>
            <path id="Path_3100" d="M182.849 171.54s10.509 7.159 10.746 24.071c.1 7.411-.667 14.333-2.372 26.472s-12.287 51.669-20.528 56.471-21.032-4.269-21.032-4.269L87.8 233.214l-14.955-12.08-7.415-13.992 2.327-4.447L86 216.687l-9.824-9.087 1.927-2.446 3.557 2.475 10.375 3.883 2.265 14.824 3.2 2.194 59.184 21.625s-.741-31.852-.193-37.944 1.3-21.4 7.826-32.5" class="cls-43" data-name="Path 3100" transform="translate(-57.857 -86.299)"/>
            <g id="Group_827" class="cls-44" data-name="Group 827" transform="translate(7.573 85.241)">
                <path id="Path_3101" d="M156.235 215.949c0 11 .371 24.071.371 24.071l-59.125-21.537-3.2-2.194-2.268-14.822-10.375-3.883-3.542-2.52-1.927 2.446 9.8 9.041-18.251-13.991-2.208 4.372 7.411 13.992 14.955 12.154 3.765 2.5 81.743 26.339z" class="cls-45" data-name="Path 3101" transform="translate(-65.391 -161.404)"/>
            </g>
            <path id="Path_3103" d="M182.849 171.54s10.509 7.159 10.746 24.071c.1 7.411-.667 14.333-2.372 26.472s-12.287 51.669-20.528 56.471-21.032-4.269-21.032-4.269L87.8 233.214l-14.955-12.08-7.415-13.992 2.327-4.447L86 216.687l-9.824-9.087 1.927-2.446 3.557 2.475 10.375 3.883 2.265 14.824 3.2 2.194 59.184 21.625s-.741-31.852-.193-37.944 1.3-21.4 7.826-32.5" class="cls-27" data-name="Path 3103" transform="translate(-57.857 -86.299)"/>
            <path id="Path_3104" d="M128.448 251.561l22.589 16.3 5.855-10.375s4.046-3.187 4.639-5.588-.163-6.3.445-8.7 3.631-4.654 3.913-10.464 0-10.657 0-10.657 4.891-20.113 4.358-28.858-8.967-24.2-15.726-24.545-15.548.682-22.366 11-5.425 40.434-6.492 42.316.415 11.176.415 11.176a5.2 5.2 0 0 0-2.075 3.75c-.119 2.416 2.49 8.36 2.49 8.36z" class="cls-22" data-name="Path 3104" transform="translate(-29.616 -87.705)"/>
            <path id="Path_3105" d="M125.833 199.41a41.828 41.828 0 0 1-.578 7.722c-.949 1.69.133 9.323.371 10.879a87.983 87.983 0 0 0 39.293 2.964 14.657 14.657 0 0 0 .5-3.157 106.537 106.537 0 0 0 0-10.657s.43-1.793 1.023-4.521a143.059 143.059 0 0 1-40.609-3.23z" class="cls-13" data-name="Path 3105" transform="translate(-29.195 -72.861)"/>
            <path id="Path_3106" d="M130.177 177.19c-2.12 4.254-3.305 10.642-3.987 17.119a88.294 88.294 0 0 0 42.257 5.143 56.53 56.53 0 0 0 .756-10.375 28.871 28.871 0 0 0-1.927-8 146.531 146.531 0 0 1-37.1-3.883z" class="cls-13" data-name="Path 3106" transform="translate(-28.559 -83.575)"/>
            <path id="Path_3107" d="M125.68 220.45l1.912 6.121 22.589 16.3 5.855-10.375s4.046-3.187 4.639-5.588a6.583 6.583 0 0 0 .193-1.275 138.122 138.122 0 0 1-35.187-5.188z" class="cls-10" data-name="Path 3107" transform="translate(-28.805 -62.715)"/>
            <path id="Path_3108" d="M140 489.811s.5-12.836 2.964-31.6-3.453-45.414-4.447-49.861.5-14.318-.489-17.786-5.8-18.261-2.964-35.424 5.128-62.534 5.128-62.534-7.129-5.8-9.219-13.34-.489-9.916-.489-9.916" class="cls-27" data-name="Path 3108" transform="translate(-26.772 -39.136)"/>
            <path id="Line_29" d="M2.742 0L0 15.192" class="cls-27" data-name="Line 29" transform="translate(113.787 230.91)"/>
        </g>
    </g>
</svg>
