<svg xmlns="http://www.w3.org/2000/svg" width="21.831" height="20.018" viewBox="0 0 21.831 20.018">
    <g data-name="Group 356">
        <path d="M15.341 5.278h1.914L14.418.411a.826.826 0 0 0-1.425.834z" data-name="Path 637"/>
        <path d="M8.847 1.244A.826.826 0 1 0 7.422.41L4.585 5.282h1.914z" data-name="Path 638"/>
        <path d="M20.423 6.77H1.4A1.4 1.4 0 0 0 0 8.17v1.555a1.4 1.4 0 0 0 1.4 1.4h.439L3.2 18.467a1.922 1.922 0 0 0 1.779 1.551h11.6a1.922 1.922 0 0 0 1.779-1.551l1.362-7.341h.713a1.4 1.4 0 0 0 1.4-1.4V8.171a1.408 1.408 0 0 0-1.41-1.401zM7.744 14.102v3.164a.793.793 0 1 1-1.587 0v-4.437a.793.793 0 1 1 1.587 0zm2.546 0v3.164a.793.793 0 1 1-1.587 0v-4.437a.792.792 0 0 1 .793-.793.81.81 0 0 1 .793.793zm2.559 1.838v1.327a.793.793 0 1 1-1.587 0V12.83a.81.81 0 0 1 .793-.793.792.792 0 0 1 .793.793zm2.546 0v1.327a.793.793 0 1 1-1.587 0V12.83a.793.793 0 1 1 1.587 0z" data-name="Path 639"/>
    </g>
</svg>
