<svg xmlns="http://www.w3.org/2000/svg" id="shopping-bag_6_" width="31.088" height="29.544" data-name="shopping-bag (6)" viewBox="0 0 31.088 29.544">
    <defs>
        <style>
            .cls-1{fill:#fff}
        </style>
    </defs>
    <g id="Group_303" data-name="Group 303" transform="translate(11.964)">
        <g id="Group_302" data-name="Group 302">
            <path id="Path_623" d="M87.334 0a5.38 5.38 0 0 0-5.373 5.081.6.6 0 0 0 1.194.066 4.185 4.185 0 0 1 8.362.1.6.6 0 0 0 .6.579h.019a.6.6 0 0 0 .579-.616A5.355 5.355 0 0 0 87.334 0z" class="cls-1" data-name="Path 623" transform="translate(-81.961)"/>
        </g>
    </g>
    <g id="Group_305" data-name="Group 305" transform="translate(21.207 4.783)">
        <g id="Group_304" data-name="Group 304">
            <path id="Path_624" d="M141.622 27.735a.564.564 0 0 0-.595-.429h-5.7a.489.489 0 1 0 0 .952h5.155l2.87 22.856h-4.783a.489.489 0 1 0 0 .952h5.443a.675.675 0 0 0 .443-.157.419.419 0 0 0 .152-.367z" class="cls-1" data-name="Path 624" transform="translate(-134.733 -27.306)"/>
        </g>
    </g>
    <g id="Group_307" data-name="Group 307" transform="translate(0 4.783)">
        <g id="Group_306" data-name="Group 306">
            <path id="Path_625" d="M38.76 27.735a.564.564 0 0 0-.595-.429H17.24a.564.564 0 0 0-.595.429l-2.989 23.809a.419.419 0 0 0 .152.367.675.675 0 0 0 .443.157h26.9a.675.675 0 0 0 .443-.157.419.419 0 0 0 .152-.367zm-23.849 23.38l2.87-22.856h19.843l2.87 22.856z" class="cls-1" data-name="Path 625" transform="translate(-13.653 -27.306)"/>
        </g>
    </g>
    <g id="Group_309" data-name="Group 309" transform="translate(8.968)">
        <g id="Group_308" data-name="Group 308">
            <path id="Path_626" d="M70.234 0a5.387 5.387 0 0 0-5.381 5.381v4.783a.6.6 0 1 0 1.2 0V5.381a4.185 4.185 0 1 1 8.37 0v4.783a.6.6 0 0 0 1.2 0V5.381A5.386 5.386 0 0 0 70.234 0z" class="cls-1" data-name="Path 626" transform="translate(-64.853)"/>
        </g>
    </g>
</svg>
