<svg xmlns="http://www.w3.org/2000/svg" width="46.607" height="46.607" viewBox="0 0 46.607 46.607">
    <defs>
        <style>
            .cls-1{fill:#fff}
        </style>
    </defs>
    <g id="Page-1">
        <g id="_007---Car-Insurance" data-name="007---Car-Insurance">
            <path id="Shape" d="M36.028 21.575l6.068 4.32a.777.777 0 0 0 .9 0l6.068-4.32a4.8 4.8 0 0 0 2.026-3.895V8.49a.777.777 0 0 0-.466-.713l-7.767-3.356a.777.777 0 0 0-.615 0l-7.768 3.355a.777.777 0 0 0-.466.713v9.191a4.8 4.8 0 0 0 2.02 3.895zM35.555 9l6.991-3.019L49.537 9v8.68a3.245 3.245 0 0 1-1.374 2.634l-5.617 3.994-5.617-4a3.243 3.243 0 0 1-1.374-2.629z" class="cls-1" transform="translate(-7.591 -.973)"/>
            <path id="Shape-2" d="M41.418 21.166a.777.777 0 0 0 1.073-.136l6.209-7.768a.777.777 0 1 0-1.213-.971l-5.748 7.181-2.5-1.879a.777.777 0 0 0-.932 1.243z" class="cls-1" data-name="Shape" transform="translate(-8.482 -2.679)"/>
            <path id="Shape-3" d="M1.554 41.169h.776v3.107a2.33 2.33 0 0 0 2.33 2.33h4.661a2.33 2.33 0 0 0 2.33-2.33v-3.107h18.643v3.107a2.33 2.33 0 0 0 2.33 2.33h4.661a2.33 2.33 0 0 0 2.33-2.33v-3.107h.777a1.554 1.554 0 0 0 1.554-1.554V27.964a3.843 3.843 0 0 0-1.346-2.928l2.672-1.9a7.914 7.914 0 0 0 3.332-6.426V5.475a.777.777 0 0 0-.466-.713L35.266.064a.777.777 0 0 0-.615 0L23.77 4.762a.777.777 0 0 0-.466.713v3.07H11.551a3.884 3.884 0 0 0-3.662 2.593l-4.575 13A3.879 3.879 0 0 0 0 27.964v11.652a1.554 1.554 0 0 0 1.554 1.553zm8.546 3.108a.777.777 0 0 1-.777.777H4.661a.777.777 0 0 1-.777-.777v-3.108H10.1zm-3.109-4.661H5.437v-1.554h1.554zm31.071 4.661a.777.777 0 0 1-.777.777h-4.66a.777.777 0 0 1-.777-.777v-3.108h6.214zm-1.554-4.661h-1.553v-1.554h1.554zM24.857 5.985l10.1-4.362 10.1 4.362V16.7a6.356 6.356 0 0 1-2.679 5.161l-7.423 5.289-7.419-5.282a6.356 6.356 0 0 1-2.679-5.16zm11.652 22.756a.777.777 0 0 1 .777.777v1.554a.777.777 0 0 1-.777.777h-4.661a.777.777 0 0 1-.777-.777 2.33 2.33 0 0 1 2.33-2.33zM23.3 13.205v1.554h-5.434v-1.554zm0-1.554h-1.55V10.1h1.55zm-13.949 0a2.33 2.33 0 0 1 2.2-1.554H20.2v1.554h-2.33a1.554 1.554 0 0 0-1.554 1.554v1.554a1.554 1.554 0 0 0 1.554 1.554h5.43v.4a7.914 7.914 0 0 0 3.332 6.426l1.329.946H4.981zm-7.8 16.312a2.33 2.33 0 0 1 2.33-2.33h26.266l2.347 1.672a3.884 3.884 0 0 0-2.977 3.766 2.33 2.33 0 0 0 2.33 2.33h4.661a2.33 2.33 0 0 0 2.33-2.33v-1.553a2.33 2.33 0 0 0-1.488-2.166l1.923-1.369a2.3 2.3 0 0 1 1.118 1.982v11.651h-2.33v-1.554a1.554 1.554 0 0 0-1.554-1.554h-1.552a1.554 1.554 0 0 0-1.555 1.554v1.554H8.545v-1.554a1.554 1.554 0 0 0-1.554-1.554H5.437a1.554 1.554 0 0 0-1.554 1.554v1.554H1.554z" class="cls-1" data-name="Shape"/>
            <path id="Shape-4" d="M16.136 15h-1.329a2.336 2.336 0 0 0-2.2 1.554L9.692 24.84a.777.777 0 0 0 1.466.516l2.916-8.284a.777.777 0 0 1 .733-.519h1.329a.777.777 0 1 0 0-1.554z" class="cls-1" data-name="Shape" transform="translate(-2.154 -3.348)"/>
            <path id="Shape-5" d="M6.33 41.214h4.661a2.33 2.33 0 0 0 2.33-2.33A3.889 3.889 0 0 0 9.437 35H6.33A2.33 2.33 0 0 0 4 37.33v1.554a2.33 2.33 0 0 0 2.33 2.33zm-.776-3.884a.777.777 0 0 1 .777-.777h3.106a2.33 2.33 0 0 1 2.33 2.33.777.777 0 0 1-.777.777H6.33a.777.777 0 0 1-.777-.777z" class="cls-1" data-name="Shape" transform="translate(-.893 -7.813)"/>
            <path id="Shape-6" d="M19.554 47.214h10.875a1.554 1.554 0 0 0 1.554-1.554v-3.106A1.554 1.554 0 0 0 30.429 41H19.554A1.554 1.554 0 0 0 18 42.554v3.107a1.554 1.554 0 0 0 1.554 1.553zm0-4.661h10.875v3.107H19.554z" class="cls-1" data-name="Shape" transform="translate(-4.018 -9.152)"/>
        </g>
    </g>
</svg>
