<svg xmlns="http://www.w3.org/2000/svg" width="47.527" height="47.947" viewBox="0 0 47.527 47.947">
    <defs>
        <style>
            .cls-1{fill:#fff}
        </style>
    </defs>
    <g id="business-and-finance" transform="translate(-2.24)">
        <g id="Group_776" data-name="Group 776" transform="translate(2.24)">
            <g id="Group_775" data-name="Group 775">
                <path id="Path_2857" d="M42.072 14.234l-.909-1.458-1.348 1.065c-.129.1-.243.217-.369.321L25.794 0 20.6 5.394l2.158 2.08 3.039-3.155 11.474 11.906a20.847 20.847 0 0 0-5.334 11.644l-4.452-4.687-1.071 1.368a14.251 14.251 0 0 0-1.489 2.42H16.8v17.98h-5.99V19.859l1.545-1.6-2.155-2.077-7.96 8.25 2.16 2.079 3.416-3.544v24.98h28.466a13.5 13.5 0 0 0 13.485-13.485c0-6.945-7.381-19.694-7.695-20.228zM19.8 44.95V29.967h3.912a16.33 16.33 0 0 0-.915 4.495 13.463 13.463 0 0 0 5.027 10.488zm16.482 0a10.5 10.5 0 0 1-10.488-10.488 18.319 18.319 0 0 1 2.029-6.573l6.961 7.33v-4.825a17.949 17.949 0 0 1 5.581-13.084c2.36 4.335 6.405 12.683 6.405 17.151A10.5 10.5 0 0 1 36.282 44.95z" class="cls-1" data-name="Path 2857" transform="translate(-2.24)"/>
                <path id="Path_2858" d="M397.44 386.192l1.982 2.247a7.537 7.537 0 0 0 2.1-3.06l-2.815-1.028a4.509 4.509 0 0 1-1.267 1.841z" class="cls-1" data-name="Path 2858" transform="translate(-360.431 -348.359)"/>
                <path id="Path_2859" d="M389.152 277.447a30.75 30.75 0 0 1 2.247 6.714l2.964-.43a32.375 32.375 0 0 0-2.457-7.475z" class="cls-1" data-name="Path 2859" transform="translate(-352.919 -250.386)"/>
                <path id="Rectangle_430" d="M0 0h2.997v2.997H0z" class="cls-1" data-name="Rectangle 430" transform="rotate(43.971 -1.206 23.934)"/>
                <path id="Rectangle_431" d="M0 0h2.997v2.995H0z" class="cls-1" data-name="Rectangle 431" transform="rotate(43.971 -8.631 20.938)"/>
            </g>
        </g>
    </g>
</svg>
