<svg xmlns="http://www.w3.org/2000/svg" width="49.609" height="49.607" viewBox="0 0 49.609 49.607">
    <defs>
        <style>
            .cls-1{fill:#fff}
        </style>
    </defs>
    <g id="Page-1" transform="translate(.003)">
        <g id="_010---Life-Insurance" data-name="010---Life-Insurance" transform="translate(-.003)">
            <path id="Shape" d="M50.11 5.067l-11.575-5a.82.82 0 0 0-.655 0l-11.575 5a.827.827 0 0 0-.5.759v6.982a12.969 12.969 0 0 0-3.305 3.358 11.968 11.968 0 0 0-9.956-5.418C5.423 10.748 1 15.519 1 23.2a15.543 15.543 0 0 0 1.72 7.391h-.894a.827.827 0 0 0 0 1.654H3.74a27.873 27.873 0 0 0 3.812 4.193c.465.441.919.87 1.341 1.3 3.048 3.09 12.656 11.327 13.063 11.672a.827.827 0 0 0 1.075 0c.408-.35 10.016-8.583 13.063-11.672.422-.428.876-.857 1.341-1.3a26.175 26.175 0 0 0 4.085-4.565 14.367 14.367 0 0 0 2.031-4.754l3.509-2.5a8.42 8.42 0 0 0 3.546-6.837V5.826a.827.827 0 0 0-.496-.759zM2.653 23.2c0-6.761 3.7-10.8 9.888-10.8a10.526 10.526 0 0 1 9.21 5.742.83.83 0 0 0 1.484 0A11.23 11.23 0 0 1 25.8 14.9v2.88a8.42 8.42 0 0 0 3.546 6.839l.774.551-1.62 5.421h-2.7a.827.827 0 0 0-.74.457l-1.26 2.519-1.315-10.52a.827.827 0 0 0-1.612-.135l-2.3 7.678h-2.691a.827.827 0 0 0-.661.331l-1.3 1.736-1.355-8.805a.827.827 0 0 0-1.6-.136l-2.295 6.875H4.62A13.7 13.7 0 0 1 2.653 23.2zm37.49 7.763a24.563 24.563 0 0 1-3.84 4.274c-.48.454-.947.9-1.382 1.338C32.328 39.2 24.607 45.874 22.5 47.69c-2.111-1.819-9.832-8.488-12.425-11.115a51.23 51.23 0 0 0-1.382-1.338A32.42 32.42 0 0 1 5.8 32.244h3.467a.827.827 0 0 0 .784-.566l1.4-4.2 1.134 7.368a.827.827 0 0 0 1.478.37l2.232-2.976h2.894a.827.827 0 0 0 .792-.589l1.358-4.513 1.167 9.343a.827.827 0 0 0 .68.713.9.9 0 0 0 .136.008.827.827 0 0 0 .74-.457l2.251-4.5h2.8a.827.827 0 0 0 .792-.589l1.379-4.588 1.143 8.593a.827.827 0 0 0 1.528.317l2.48-4.134a.827.827 0 1 0-1.417-.852L33.752 33.1l-.785-5.9 4.382 3.119a1.475 1.475 0 0 0 1.711 0l2.273-1.619a12.92 12.92 0 0 1-1.19 2.263zm8.809-13.18a6.763 6.763 0 0 1-2.852 5.492L38.2 28.9l-7.9-5.622a6.763 6.763 0 0 1-2.852-5.491V6.37L38.2 1.727 48.953 6.37z" class="cls-1" transform="translate(-.997)"/>
            <path id="Shape-2" d="M43.764 4.425L35.5 8a.827.827 0 0 0-.5.759v9.782a5.109 5.109 0 0 0 2.156 4.145l6.459 4.6a.827.827 0 0 0 .959 0l6.459-4.6a5.11 5.11 0 0 0 2.156-4.145V8.755a.827.827 0 0 0-.5-.759l-8.264-3.571a.827.827 0 0 0-.661 0zM51.536 9.3v9.235a3.453 3.453 0 0 1-1.463 2.8l-5.978 4.256-5.978-4.256a3.452 3.452 0 0 1-1.463-2.8V9.3l7.441-3.215z" class="cls-1" data-name="Shape" transform="translate(-6.887 -.754)"/>
            <path id="Shape-3" d="M40.323 17.954a.827.827 0 0 0-.992 1.323l3.307 2.48a.827.827 0 0 0 1.142-.145l6.614-8.268a.827.827 0 0 0-1.294-1.032l-6.118 7.642z" class="cls-1" data-name="Shape" transform="translate(-7.58 -2.079)"/>
        </g>
    </g>
</svg>
