<svg xmlns="http://www.w3.org/2000/svg" width="38.177" height="38.132" viewBox="0 0 38.177 38.132">
    <defs>
        <style>
            .cls-1{fill:#fff}
        </style>
    </defs>
    <g id="Page-1" transform="translate(-.964)">
        <g id="_038---Life-Insurance" data-name="038---Life-Insurance" transform="translate(.964)">
            <path id="Shape" d="M36.66 18.444l4.965 3.534a.635.635 0 0 0 .737 0l4.965-3.534a3.928 3.928 0 0 0 1.657-3.187V7.738a.636.636 0 0 0-.381-.583l-6.355-2.746a.636.636 0 0 0-.5 0l-6.359 2.746a.636.636 0 0 0-.381.583v7.52a3.928 3.928 0 0 0 1.652 3.186zm-.386-10.288l5.72-2.471 5.72 2.471v7.1a2.654 2.654 0 0 1-1.124 2.151l-4.6 3.272-4.6-3.272a2.653 2.653 0 0 1-1.124-2.151z" class="cls-1" transform="translate(-13.372 -1.588)"/>
            <path id="Shape-2" d="M41.8 19.5a.636.636 0 0 0 .878-.111l5.084-6.355a.636.636 0 0 0-.993-.794l-4.7 5.874-2.046-1.537a.636.636 0 0 0-.763 1.017z" class="cls-1" data-name="Shape" transform="translate(-14.827 -4.375)"/>
            <path id="Shape-3" d="M37 31.946c-.168-.079-.327-.153-.465-.227-.9-.483-1.806-.966-2.7-1.471a11.014 11.014 0 0 0-3.424-1.376 8.4 8.4 0 0 1-3.319-1.755v-1.876A6.838 6.838 0 0 0 28.6 23.07l.326.232a1.134 1.134 0 0 0 1.316 0l6.149-4.378a6.472 6.472 0 0 0 2.726-5.255V4.478a.636.636 0 0 0-.381-.583L29.84.052a.63.63 0 0 0-.5 0l-3.484 1.5A12.214 12.214 0 0 0 20.695 0h-1.312A12.434 12.434 0 0 0 15.1 1.1a7.57 7.57 0 0 0-4.65 6.805 52.304 52.304 0 0 0-.053 3.567 1.262 1.262 0 0 0-1.009.07c-.712.359-.944 1.743-.686 4.131a5.7 5.7 0 0 0 2.345 3.727 6.758 6.758 0 0 0 1.966 5.836v1.878a8.4 8.4 0 0 1-3.32 1.757 11.016 11.016 0 0 0-3.424 1.378c-.89.5-1.793.988-2.7 1.471-.138.074-.3.148-.465.227a4.079 4.079 0 0 0-1.877 1.369A2.4 2.4 0 0 0 .981 34.7c0 .088.007.177.006.266V37.5a.636.636 0 0 0 .636.636h36.86a.636.636 0 0 0 .636-.636v-2.533c0-.089 0-.178.006-.266a2.4 2.4 0 0 0-.251-1.383A4.079 4.079 0 0 0 37 31.946zM29.586 1.327L37.848 4.9v8.77a5.2 5.2 0 0 1-2.192 4.222l-6.07 4.324-6.07-4.322a5.2 5.2 0 0 1-2.192-4.221V4.9zM9.963 15.521a8.833 8.833 0 0 1 .05-2.836 1.387 1.387 0 0 1 .461.414 24.82 24.82 0 0 0 .376 2.8 11.936 11.936 0 0 1 .234 1.886 4.806 4.806 0 0 1-1.121-2.264zm2.363 3.744c.018-.406.037-.819.037-1.242a12.157 12.157 0 0 0-.262-2.347 29.656 29.656 0 0 1-.381-7.709c.294-6.282 7.417-6.683 7.691-6.7h1.255a11.449 11.449 0 0 1 3.686.934L20.434 3.9a.636.636 0 0 0-.381.583v9.187a6.472 6.472 0 0 0 2.726 5.257L27.52 22.3a5.552 5.552 0 0 1-1.5 2.213l-.01.009-.01.011a14.414 14.414 0 0 0-2.177 2.75c-.868 1.335-1.3 1.926-2.49 1.926h-2.564c-1.188 0-1.622-.59-2.49-1.926a14.416 14.416 0 0 0-2.179-2.752l-.009-.009-.01-.009c-1.913-1.818-1.845-3.331-1.755-5.248zM2.258 35.731v-.758c0-.106 0-.214-.008-.318a1.317 1.317 0 0 1 .077-.691 3.329 3.329 0 0 1 1.322-.864c.191-.088.369-.173.524-.254.912-.489 1.827-.977 2.727-1.487a9.879 9.879 0 0 1 3.023-1.235 5.812 5.812 0 0 0 1.035-.3c-.147 1.716-.121 4.953 1.779 7.036H2.258zm22.879 1.129H14.766c-3.133-1.707-2.613-6.594-2.451-7.7.254-.15.489-.3.7-.445v1.136a.636.636 0 0 0 1.271 0v-3.21c.357.464.655.915.929 1.335.874 1.343 1.628 2.5 3.556 2.5h2.568c1.928 0 2.682-1.16 3.556-2.5.273-.42.572-.871.929-1.335v3.2a.636.636 0 1 0 1.271 0v-1.132c.21.146.445.3.7.449.164 1.108.69 5.991-2.451 7.7zm12.718-2.208c0 .107-.008.214-.008.318v1.89H27.37c1.9-2.083 1.927-5.323 1.779-7.036a5.817 5.817 0 0 0 1.035.3 9.885 9.885 0 0 1 3.024 1.23c.9.508 1.812 1 2.723 1.486.156.084.336.168.524.254a3.336 3.336 0 0 1 1.322.864 1.321 1.321 0 0 1 .078.695z" class="cls-1" data-name="Shape" transform="translate(-.964)"/>
        </g>
    </g>
</svg>
