<svg xmlns="http://www.w3.org/2000/svg" width="76.381" height="91.657" viewBox="0 0 76.381 91.657">
    <defs>
        <style>
            .cls-1{fill:#fff}
        </style>
    </defs>
    <g id="bill_1_" data-name="bill (1)">
        <path id="Path_310" d="M82.336 2.078a1.528 1.528 0 0 0-1.7.533L77.27 7.092l-3.36-4.481a1.583 1.583 0 0 0-2.444 0L68.1 7.092l-3.356-4.481a1.583 1.583 0 0 0-2.444 0l-3.361 4.481-3.361-4.481a1.583 1.583 0 0 0-2.444 0l-3.361 4.481-3.36-4.481a1.583 1.583 0 0 0-2.444 0l-3.361 4.481-3.361-4.481a1.583 1.583 0 0 0-2.444 0l-3.361 4.481-3.361-4.481a1.583 1.583 0 0 0-2.444 0l-3.361 4.481-3.361-4.481a1.528 1.528 0 0 0-2.75.917v74.853H8.528A1.528 1.528 0 0 0 7 79.909v6.11a7.647 7.647 0 0 0 7.638 7.638h61.1a7.647 7.647 0 0 0 7.638-7.638V3.528a1.528 1.528 0 0 0-1.045-1.45zM14.638 90.6a4.583 4.583 0 0 1-4.583-4.583v-4.581H68.1v4.583a7.6 7.6 0 0 0 1.532 4.581zm65.688-4.583a4.583 4.583 0 1 1-9.166 0v-6.11a1.528 1.528 0 0 0-1.528-1.528H19.221V8.111l1.833 2.444a1.583 1.583 0 0 0 2.444 0l3.361-4.481 3.361 4.481a1.583 1.583 0 0 0 2.444 0l3.361-4.481 3.361 4.481a1.583 1.583 0 0 0 2.444 0l3.36-4.481 3.361 4.481a1.583 1.583 0 0 0 2.444 0l3.361-4.481 3.361 4.481a1.583 1.583 0 0 0 2.444 0l3.361-4.481 3.361 4.481a1.583 1.583 0 0 0 2.444 0l3.361-4.481 3.361 4.481a1.583 1.583 0 0 0 2.444 0l1.833-2.444z" class="cls-1" data-name="Path 310" transform="translate(-7 -2)"/>
        <path id="Path_312" d="M29 20h33.608v3.055H29z" class="cls-1" data-name="Path 312" transform="translate(4.608 7.498)"/>
        <path id="Path_313" d="M29 16h6.11v3.055H29z" class="cls-1" data-name="Path 313" transform="translate(4.608 5.387)"/>
        <path id="Path_314" d="M35 16h12.221v3.055H35z" class="cls-1" data-name="Path 314" transform="translate(7.773 5.387)"/>
        <path id="Path_315" d="M19 26h39.718v3.055H19z" class="cls-1" data-name="Path 315" transform="translate(-.669 10.663)"/>
        <path id="Path_316" d="M47 26h6.11v3.055H47z" class="cls-1" data-name="Path 316" transform="translate(14.105 10.663)"/>
        <path id="Path_317" d="M19 30h39.718v3.055H19z" class="cls-1" data-name="Path 317" transform="translate(-.669 12.774)"/>
        <path id="Path_318" d="M47 30h6.11v3.055H47z" class="cls-1" data-name="Path 318" transform="translate(14.105 12.774)"/>
        <path id="Path_319" d="M19 34h39.718v3.055H19z" class="cls-1" data-name="Path 319" transform="translate(-.669 14.884)"/>
        <path id="Path_320" d="M47 34h6.11v3.055H47z" class="cls-1" data-name="Path 320" transform="translate(14.105 14.884)"/>
        <path id="Path_321" d="M19 38h39.718v3.055H19z" class="cls-1" data-name="Path 321" transform="translate(-.669 16.995)"/>
        <path id="Path_322" d="M47 38h6.11v3.055H47z" class="cls-1" data-name="Path 322" transform="translate(14.105 16.995)"/>
        <path id="Path_323" d="M19 42h39.718v3.055H19z" class="cls-1" data-name="Path 323" transform="translate(-.669 19.105)"/>
        <path id="Path_324" d="M47 42h6.11v3.055H47z" class="cls-1" data-name="Path 324" transform="translate(14.105 19.105)"/>
        <path id="Path_325" d="M19 46h39.718v3.055H19z" class="cls-1" data-name="Path 325" transform="translate(-.669 21.216)"/>
        <path id="Path_326" d="M47 46h6.11v3.055H47z" class="cls-1" data-name="Path 326" transform="translate(14.105 21.216)"/>
    </g>
</svg>
