<svg xmlns="http://www.w3.org/2000/svg" width="124.274" height="89.063" viewBox="0 0 124.274 89.063">
    <defs>
        <style>
            .cls-1{fill:#fff}
        </style>
    </defs>
    <g id="desk-bell">
        <path id="Path_292" d="M120.061 87.636h-2.071v-6.214a2.071 2.071 0 0 0-2.071-2.071H70.351v-4.143h37.282a2.071 2.071 0 0 0 2.071-2.071v-6.213A39.4 39.4 0 0 0 70.351 27.57v-4.143h4.142a2.071 2.071 0 0 0 2.071-2.071v-8.285A2.071 2.071 0 0 0 74.493 11H53.781a2.071 2.071 0 0 0-2.071 2.071v8.285a2.071 2.071 0 0 0 2.071 2.071h4.142v4.143A39.4 39.4 0 0 0 18.57 66.924v6.214a2.071 2.071 0 0 0 2.071 2.071h37.283v4.142H12.356a2.071 2.071 0 0 0-2.071 2.071v6.214H8.214a6.214 6.214 0 1 0 0 12.427h111.847a6.214 6.214 0 1 0 0-12.427zM55.852 19.285v-4.143h16.57v4.142zm10.356 4.142v4.143h-4.142v-4.143zm-43.5 47.639v-4.142a35.25 35.25 0 0 1 35.216-35.212h12.427a35.25 35.25 0 0 1 35.211 35.211v4.142zm43.5 4.142v4.142h-4.142v-4.142zm-51.781 8.285h99.42v4.143h-99.42zm105.634 12.428H8.214a2.071 2.071 0 1 1 0-4.142h111.847a2.071 2.071 0 1 1 0 4.142z" class="cls-1" data-name="Path 292" transform="translate(-2 -11)"/>
        <path id="Path_293" d="M14.023 50.1a1.957 1.957 0 0 0 1.934 2.254h13.7v-3.913H18.305a26.149 26.149 0 0 1 25.05-21.527V23c-.255 0-25.21.309-29.332 27.1z" class="cls-1" data-name="Path 293" transform="translate(11.312 2.589)"/>
        <path id="Path_294" d="M24 36h3.914v3.914H24z" class="cls-1" data-name="Path 294" transform="translate(21.654 15.92)"/>
        <path id="Path_295" d="M53.361 49.993l1.937.27 1.937.278c.086-.609 1.957-15-12.542-25.355l-2.274 3.186C54.924 37.3 53.429 49.48 53.361 49.993z" class="cls-1" data-name="Path 295" transform="translate(41.972 4.896)"/>
        <path id="Path_296" d="M11.827 40.9c3.608-14.436 18.213-20.117 18.362-20.172l-1.38-3.665c-.677.256-16.664 6.423-20.779 22.885z" class="cls-1" data-name="Path 296" transform="translate(3.771 .447)"/>
        <path id="Path_297" d="M18.756 16.1A29.183 29.183 0 0 0 6.071 30.827l3.636 1.456A25.684 25.684 0 0 1 20.512 19.6l-.881-1.748z" class="cls-1" data-name="Path 297" transform="translate(1.896 -6.115)"/>
        <path id="Path_298" d="M44.648 20.73c.149.053 14.738 5.675 18.361 20.169l3.8-.951C62.7 23.486 46.7 17.319 46.026 17.063z" class="cls-1" data-name="Path 298" transform="translate(45.669 .447)"/>
        <path id="Path_299" d="M61.352 32.283l3.636-1.456A29.183 29.183 0 0 0 52.3 16.105l-1.75 3.5a25.4 25.4 0 0 1 10.8 12.675z" class="cls-1" data-name="Path 299" transform="translate(51.32 -6.115)"/>
    </g>
</svg>
