<svg xmlns="http://www.w3.org/2000/svg" width="70.969" height="94.933" viewBox="0 0 70.969 94.933">
    <defs>
        <style>
            .cls-1{fill:#fff}
        </style>
    </defs>
    <path id="insurance_1_" d="M80.028 72.663a2.23 2.23 0 0 1-2.23 2.23h-8.452a2.23 2.23 0 0 1 0-4.46H77.8a2.23 2.23 0 0 1 2.228 2.23zm14.292-42.15h8.453a2.23 2.23 0 1 0 0-4.46H94.32a2.23 2.23 0 0 0 0 4.46zm0 9.445h8.453a2.23 2.23 0 1 0 0-4.46H94.32a2.23 2.23 0 0 0 0 4.46zm-9.684 4.887h-15.29a2.23 2.23 0 1 0 0 4.46h15.29a2.23 2.23 0 1 0 0-4.46zm-.145 16.191H69.345a2.23 2.23 0 1 0 0 4.46h15.146a2.23 2.23 0 0 0 0-4.46zm40.209 3.438v14.548a15.9 15.9 0 0 1-26.685 11.7H55.964a2.23 2.23 0 0 1-2.23-2.23V2.23A2.23 2.23 0 0 1 55.964 0h44.883a2.221 2.221 0 0 1 1.58.638l15.291 15.291a2.226 2.226 0 0 1 .6 1.129v.042a2.222 2.222 0 0 1 .039.435v44.071q2.266.273 4.486.675a2.229 2.229 0 0 1 1.857 2.193zm-21.605-49.183h7.677l-7.677-7.677zM92.88 79.022V64.474a2.23 2.23 0 0 1 1.832-2.194 79.172 79.172 0 0 1 14.079-1.246q2.579 0 5.134.162V19.751h-13.06a2.23 2.23 0 0 1-2.23-2.23V4.46H58.194v81.8h36.43a15.812 15.812 0 0 1-1.744-7.238zm27.364-12.661a76.071 76.071 0 0 0-22.9 0v12.66a11.452 11.452 0 0 0 22.9 0zm-13.682 5.533v3.86H102.7a2.23 2.23 0 1 0 0 4.46h3.86v3.861a2.23 2.23 0 0 0 4.46 0v-3.861h3.861a2.23 2.23 0 1 0 0-4.46h-3.861v-3.86a2.23 2.23 0 1 0-4.46 0zM102.773 49.3a2.23 2.23 0 1 0 0-4.46H94.32a2.23 2.23 0 0 0 0 4.46zM84.636 35.5h-15.29a2.23 2.23 0 1 0 0 4.46h15.29a2.23 2.23 0 1 0 0-4.46zm0-9.445h-15.29a2.23 2.23 0 1 0 0 4.46h15.29a2.23 2.23 0 1 0 0-4.46z" class="cls-1" data-name="insurance (1)" transform="translate(-53.734)"/>
</svg>
