<svg xmlns="http://www.w3.org/2000/svg" width="94.933" height="99.234" viewBox="0 0 94.933 99.234">
    <defs>
        <style>
            .cls-1{fill:#fff}
        </style>
    </defs>
    <g id="offer" transform="translate(0 5)">
        <g id="Group_674" data-name="Group 674" transform="translate(0 -5)">
            <path id="Path_305" d="M117.193 43.534v.064a10.843 10.843 0 0 0 6.188 10.343l.041.02a7.29 7.29 0 0 1 3.3 3.175l.016.03a11.329 11.329 0 0 0 10.647 5.942h.068a7.753 7.753 0 0 1 4.584 1.192 11.621 11.621 0 0 0 12.325 0 7.753 7.753 0 0 1 4.584-1.192h.068a11.336 11.336 0 0 0 10.65-5.948l.01-.021a7.3 7.3 0 0 1 3.311-3.182l.033-.016A10.843 10.843 0 0 0 179.2 43.6v-.06a6.937 6.937 0 0 1 1.207-4.3 10.668 10.668 0 0 0 0-12.063 6.937 6.937 0 0 1-1.208-4.3v-.064a10.842 10.842 0 0 0-6.192-10.345l-.037-.018a7.283 7.283 0 0 1-3.3-3.164l-.021-.041A11.337 11.337 0 0 0 159.012 3.3h-.068a7.748 7.748 0 0 1-4.582-1.192 11.621 11.621 0 0 0-12.325 0 7.759 7.759 0 0 1-4.586 1.192h-.068a11.33 11.33 0 0 0-10.646 5.941l-.016.028a7.294 7.294 0 0 1-3.305 3.18l-.038.018a10.842 10.842 0 0 0-6.188 10.344v.06a6.933 6.933 0 0 1-1.207 4.3 10.667 10.667 0 0 0 0 12.064 6.932 6.932 0 0 1 1.206 4.3zm1.872-14.234a10.693 10.693 0 0 0 1.863-6.634v-.064a7.11 7.11 0 0 1 4.085-6.763l.032-.016a11.013 11.013 0 0 0 4.988-4.8l.018-.035a7.584 7.584 0 0 1 7.136-3.945h.066a11.459 11.459 0 0 0 6.778-1.762 7.861 7.861 0 0 1 8.338 0 11.485 11.485 0 0 0 6.777 1.763h.066a7.573 7.573 0 0 1 7.133 3.938l.025.047a11.012 11.012 0 0 0 4.984 4.8l.031.016a7.112 7.112 0 0 1 4.085 6.755v.067a10.692 10.692 0 0 0 1.86 6.633 6.908 6.908 0 0 1 0 7.815 10.7 10.7 0 0 0-1.862 6.635v.063a7.115 7.115 0 0 1-4.089 6.767l-.027.013a11.025 11.025 0 0 0-4.992 4.807l-.014.027a7.581 7.581 0 0 1-7.137 3.945h-.065a11.48 11.48 0 0 0-6.78 1.763 7.861 7.861 0 0 1-8.336 0 11.462 11.462 0 0 0-6.144-1.78q-.316 0-.635.017h-.066a7.576 7.576 0 0 1-7.139-3.949l-.019-.036a11 11 0 0 0-4.98-4.794l-.035-.017a7.11 7.11 0 0 1-4.089-6.765v-.067a10.7 10.7 0 0 0-1.864-6.633 6.908 6.908 0 0 1 0-7.814zm0 0" class="cls-1" data-name="Path 305" transform="translate(-92.963 -.346)"/>
            <path id="Path_306" d="M205.384 95.894a1.87 1.87 0 0 0 2.576-.6L230.117 59.8a1.871 1.871 0 1 0-3.174-1.981l-22.155 35.497a1.87 1.87 0 0 0 .6 2.577zm0 0" class="cls-1" data-name="Path 306" transform="translate(-160.236 -43.698)"/>
            <path id="Path_307" d="M189.693 79.556c4.554 0 8.26-4.226 8.26-9.419s-3.706-9.418-8.26-9.418-8.259 4.225-8.259 9.418 3.705 9.419 8.259 9.419zm0-15.1c2.492 0 4.52 2.547 4.52 5.678s-2.027 5.679-4.52 5.679-4.519-2.549-4.519-5.679 2.026-5.675 4.519-5.675zm0 0" class="cls-1" data-name="Path 307" transform="translate(-141.808 -46.604)"/>
            <path id="Path_308" d="M267.684 149.934c0 5.194 3.705 9.418 8.259 9.418s8.26-4.226 8.26-9.418-3.705-9.418-8.259-9.418-8.26 4.224-8.26 9.418zm12.779 0c0 3.131-2.027 5.678-4.52 5.678s-4.519-2.547-4.519-5.678 2.027-5.678 4.519-5.678 4.52 2.544 4.52 5.678zm0 0" class="cls-1" data-name="Path 308" transform="translate(-209.221 -109.967)"/>
        </g>
        <path id="Path_309" d="M94.7 276.76a8.68 8.68 0 0 0-11.79-3.8l-13.841 6.92a11.225 11.225 0 0 0-9.614-6.277l-12.781-.373a12.928 12.928 0 0 1-5.809-1.587l-1.3-.713a21.826 21.826 0 0 0-21.248.024l.081-3.118a1.828 1.828 0 0 0-1.718-1.922l-14.015-.408a1.814 1.814 0 0 0-1.815 1.818L0 299.871a1.828 1.828 0 0 0 1.718 1.921l14.015.408h.049a1.819 1.819 0 0 0 1.767-1.819l.04-1.557 3.641-2.063a5.942 5.942 0 0 1 4.662-.54l21.742 6.458c.038.012.076.021.115.03a22.052 22.052 0 0 0 4.779.521 22.5 22.5 0 0 0 9.851-2.275 1.709 1.709 0 0 0 .219-.126l31.524-21.579a1.934 1.934 0 0 0 .579-2.491zM3.583 298.1l.75-28.8 10.482.305-.75 28.807zm57.2-.49a19.027 19.027 0 0 1-12.255 1.447l-21.684-6.439a9.291 9.291 0 0 0-7.286.843l-1.858 1.057.5-19.153a18.52 18.52 0 0 1 19.736-1.114l1.3.713a16.326 16.326 0 0 0 7.338 2.005l12.781.373a7.886 7.886 0 0 1 7.368 6.536l-19.038-.554a1.874 1.874 0 0 0-.1 3.74l21.01.612h.05a1.819 1.819 0 0 0 1.766-1.819 12.615 12.615 0 0 0-.171-2.426l14.2-7.1.041-.021a5.172 5.172 0 0 1 6.107.9zm0 0" class="cls-1" data-name="Path 309" transform="translate(0 -208.997)"/>
    </g>
</svg>
