<svg xmlns="http://www.w3.org/2000/svg" width="94.933" height="101.713" viewBox="0 0 94.933 101.713">
    <defs>
        <style>
            .cls-1{fill:#fff}
        </style>
    </defs>
    <g id="outline">
        <path id="Path_272" d="M125.236 87.2h-1.7V73.638a5.092 5.092 0 0 0-5.086-5.086h-3.39a1.7 1.7 0 0 0-1.7 1.7v3.39H91.332a1.7 1.7 0 0 0-1.7 1.7v6.3a13.53 13.53 0 0 0-9.867-4.6l1.368-8.205a1.7 1.7 0 0 0-1.672-1.974V53.4a13.477 13.477 0 0 1 9.818 6.316 4.439 4.439 0 0 0 7.488 0 13.519 13.519 0 0 1 20.733-2.787 1.7 1.7 0 0 0 2.789-1.688A44.374 44.374 0 0 0 104.738 32a43.545 43.545 0 0 0-21.882-8.928v-1.986a5.086 5.086 0 0 0-10.171 0v1.984A43.545 43.545 0 0 0 50.8 32a44.374 44.374 0 0 0-15.55 23.243 1.7 1.7 0 0 0 2.789 1.688 13.519 13.519 0 0 1 20.727 2.788 4.439 4.439 0 0 0 7.488 0 13.477 13.477 0 0 1 9.821-6.319v13.457H65.9a1.7 1.7 0 0 0-1.672 1.974l1.372 8.205a13.581 13.581 0 0 0-12.24 8.408 6.775 6.775 0 0 0-11.12 6.1 6.777 6.777 0 0 0-9.24 9.368 1.7 1.7 0 0 0-1 1.544v13.562a1.7 1.7 0 0 0 1.7 1.7h91.542a1.7 1.7 0 0 0 1.7-1.7V88.895a1.7 1.7 0 0 0-1.706-1.695zM76.075 21.086a1.7 1.7 0 0 1 1.7-1.7 1.622 1.622 0 0 1 1.175.487l.033.033a1.622 1.622 0 0 1 .487 1.175v1.728q-.845-.031-1.7-.033t-1.7.033zm-12.7 36.843a1.05 1.05 0 0 1-1.728 0A16.911 16.911 0 0 0 40.092 51.5a40.688 40.688 0 0 1 75.355 0 16.911 16.911 0 0 0-21.557 6.428 1.05 1.05 0 0 1-1.728 0 16.922 16.922 0 0 0-28.786 0zm60.164 34.357v8.476H113.37v-3.39h5.086a5.091 5.091 0 0 0 5.085-5.087zm-13.562 5.086v3.39h-3.39v-3.39zm-6.781 3.39H93.027v-3.39H103.2zm-7.066 11.112a1.689 1.689 0 0 0 .285-.94h6.785v3.39h-8.7zm-2.4-4.331l-.7-.7v-2.689h10.17v3.39zm12.86-3.39h3.39v3.39h-3.39zm6.781 0h10.171v3.39H113.37zm3.39-32.209h1.7a1.7 1.7 0 0 1 1.7 1.7V87.49a5.061 5.061 0 0 0-1.7-.291h-1.7zm-23.734 5.084h20.343v11.867a1.7 1.7 0 0 0 1.7 1.7h3.39a1.7 1.7 0 1 1 0 3.39H93.027zm-15.563-6.781l-1.13 6.781h-7.3L67.9 70.247zm-42.075 33.9h6.781v3.39h-6.781zm16.952-6.781v3.39h-6.78v-3.39zm-6.781 6.781h6.781v2.689l-.7.7h-6.08zM48.951 87.2a3.39 3.39 0 1 1-3.39 3.39 3.39 3.39 0 0 1 3.39-3.39zM38.78 93.98a3.39 3.39 0 1 1-3.39 3.39 3.39 3.39 0 0 1 3.39-3.39zm-3.39 16.952h6.78v3.39h-6.781zm10.171 0h3.39a1.689 1.689 0 0 0 .284.94l1.634 2.45h-5.308zm44.864 3.39h-9.1a12.727 12.727 0 0 0 2.692-3.612l.358-.716-3.032-1.516-.358.716a9.276 9.276 0 0 1-16.594 0l-.358-.716L61 110l.358.716a12.733 12.733 0 0 0 2.692 3.611h-9.1l-2.116-3.175 2.408-2.408a1.7 1.7 0 0 0 .5-1.2V90.59A10.183 10.183 0 0 1 65.9 80.418h13.565A10.183 10.183 0 0 1 89.636 90.59v16.952a1.7 1.7 0 0 0 .5 1.2l2.408 2.408zm16.164 0v-3.39h3.39v3.39zm16.952 0H113.37v-3.39h10.171z" class="cls-1" data-name="Path 272" transform="translate(-31.999 -16)"/>
        <path id="Path_273" d="M356.415 328.83a4.415 4.415 0 1 0-4.415-4.415 4.415 4.415 0 0 0 4.415 4.415zm0-5.887a1.472 1.472 0 1 1-1.472 1.472 1.472 1.472 0 0 1 1.472-1.472z" class="cls-1" data-name="Path 273" transform="translate(-276.077 -255.698)"/>
        <path id="Path_275" d="M139.042 87.6l1.823 2.31a29.276 29.276 0 0 1 15.415-6.184l-.28-2.934a32.212 32.212 0 0 0-16.958 6.808z" class="cls-1" data-name="Path 275" transform="translate(-110.16 -69.78)"/>
        <path id="Path_276" d="M293.405 89.659a32.413 32.413 0 0 0-13.758-6.339l-.568 2.888a29.46 29.46 0 0 1 12.5 5.761z" class="cls-1" data-name="Path 276" transform="translate(-219.899 -71.843)"/>
        <path id="Path_277" d="M102.782 135.117l2.427 1.665a29.654 29.654 0 0 1 3.688-4.392l-2.06-2.1a32.591 32.591 0 0 0-4.055 4.829z" class="cls-1" data-name="Path 277" transform="translate(-82.344 -106.872)"/>
        <path id="Path_278" d="M366.087 135.116a32.6 32.6 0 0 0-4.055-4.828l-2.06 2.1a29.676 29.676 0 0 1 3.688 4.391z" class="cls-1" data-name="Path 278" transform="translate(-282.583 -106.872)"/>
    </g>
</svg>
