<svg xmlns="http://www.w3.org/2000/svg" width="94.941" height="94.933" viewBox="0 0 94.941 94.933">
    <defs>
        <style>
            .cls-1{fill:#fff}
        </style>
    </defs>
    <g id="payment-method_1_" data-name="payment-method (1)">
        <g id="Group_636" data-name="Group 636" transform="translate(28.309 71.135)">
            <g id="Group_635" data-name="Group 635">
                <path id="Path_283" d="M156.473 385.37a1.962 1.962 0 0 0-.107-.353 1.9 1.9 0 0 0-.173-.323 1.824 1.824 0 0 0-.519-.519 1.85 1.85 0 0 0-.325-.173 1.761 1.761 0 0 0-.352-.107 1.85 1.85 0 0 0-.733 0 1.817 1.817 0 0 0-.353.107 1.9 1.9 0 0 0-.323.173 1.879 1.879 0 0 0-.692.842 1.818 1.818 0 0 0-.107.353 1.807 1.807 0 0 0 0 .733 1.764 1.764 0 0 0 .107.352 1.74 1.74 0 0 0 .173.325 1.828 1.828 0 0 0 .519.519 1.892 1.892 0 0 0 .323.173 1.819 1.819 0 0 0 .353.107 1.806 1.806 0 0 0 .733 0 1.763 1.763 0 0 0 .352-.107 1.853 1.853 0 0 0 .325-.173 1.828 1.828 0 0 0 .519-.519 1.854 1.854 0 0 0 .173-.325 1.9 1.9 0 0 0 .107-.352 1.805 1.805 0 0 0 0-.733z" class="cls-1" data-name="Path 283" transform="translate(-152.75 -383.857)"/>
            </g>
        </g>
        <g id="Group_638" data-name="Group 638" transform="translate(0 56.943)">
            <g id="Group_637" data-name="Group 637">
                <path id="Path_284" d="M85.172 325.915l-.022-.056c-1.7-4.049-5.7-5.546-10.431-3.905l-12.9 3.622a8.522 8.522 0 0 0-5.236-5.236l-.049-.018-14.18-4.887a14.555 14.555 0 0 0-11.8-5.513c-4.837 0-9.116 3.37-11.565 7.042H1.852A1.866 1.866 0 0 0 0 318.845v23.7a1.866 1.866 0 0 0 1.852 1.88h11.009a1.866 1.866 0 0 0 1.852-1.88v-1.623h5.163a1.866 1.866 0 0 0 1.852-1.88v-.542c3.01.267 4 .846 6.763 2.465a111.441 111.441 0 0 0 11.124 5.767l.081.035a16.4 16.4 0 0 0 5.957 1.14 14.568 14.568 0 0 0 6.135-1.334L80.3 336.211c.051-.018.1-.039.15-.062 2.724-1.273 6.785-4.861 4.722-10.234zm-74.163 14.754H3.7v-19.944h7.306zm7.014-3.5h-3.311v-16.444h3.311zM78.97 332.7l-28.5 10.362-.084.033-.075.033a11.833 11.833 0 0 1-9.221.16 106.68 106.68 0 0 1-10.751-5.576c-3.03-1.774-4.49-2.629-8.613-2.975v-15.144c1.755-2.921 5.159-5.911 8.828-5.911 6.293 0 8.959 4.156 9.064 4.324a1.857 1.857 0 0 0 .982.8l14.716 5.072c2.35.9 3.592 2.939 3.021 4.978a3.63 3.63 0 0 1-1.714 2.2 3.538 3.538 0 0 1-2.719.33l-16.589-5.338a1.846 1.846 0 0 0-2.324 1.224 1.886 1.886 0 0 0 1.206 2.36l16.618 5.347.053.016a7.168 7.168 0 0 0 5.558-.656 7.355 7.355 0 0 0 3.473-4.454q.064-.228.113-.457l13.9-3.911c2.008-.7 4.644-.947 5.817 1.8 1.218 3.214-1.939 4.983-2.759 5.383z" class="cls-1" data-name="Path 284" transform="translate(0 -309.922)"/>
            </g>
        </g>
        <g id="Group_640" data-name="Group 640" transform="translate(62.872 22.883)">
            <g id="Group_639" data-name="Group 639">
                <path id="Path_285" d="M342.975 125.011a1.825 1.825 0 0 0-.109-.353 1.853 1.853 0 0 0-.692-.842 1.9 1.9 0 0 0-.323-.173 1.873 1.873 0 0 0-1.087-.107 1.765 1.765 0 0 0-.352.107 1.855 1.855 0 0 0-.325.173 1.827 1.827 0 0 0-.519.519 1.907 1.907 0 0 0-.173.323 1.821 1.821 0 0 0-.107.353 1.806 1.806 0 0 0 0 .733 1.765 1.765 0 0 0 .107.352 1.853 1.853 0 0 0 .173.325 1.828 1.828 0 0 0 .519.519 1.856 1.856 0 0 0 .325.173 1.9 1.9 0 0 0 .352.107 1.851 1.851 0 0 0 .367.038 1.884 1.884 0 0 0 .368-.038 1.987 1.987 0 0 0 .352-.107 1.906 1.906 0 0 0 .323-.173 1.829 1.829 0 0 0 .519-.519 1.739 1.739 0 0 0 .173-.325 1.769 1.769 0 0 0 .109-.352 1.9 1.9 0 0 0 0-.733z" class="cls-1" data-name="Path 285" transform="translate(-339.25 -123.498)"/>
            </g>
        </g>
        <g id="Group_642" data-name="Group 642" transform="translate(5.582)">
            <g id="Group_641" data-name="Group 641">
                <path id="Path_286" d="M117.2 6.391h-11.019a1.867 1.867 0 0 0-1.853 1.88v1.623h-5.165a1.867 1.867 0 0 0-1.853 1.88v.541c-3.011-.267-4-.846-6.767-2.465a111.515 111.515 0 0 0-11.132-5.766l-.082-.035a15.55 15.55 0 0 0-12.1.193l-7.453 2.709L53.492.574a1.834 1.834 0 0 0-2.62 0L30.24 21.511a1.884 1.884 0 0 0 0 2.659L65.5 59.947a1.98 1.98 0 0 0 2.62 0l18.832-19.114c.49.043 1 .066 1.525.066 4.84 0 9.122-3.37 11.572-7.042H117.2a1.867 1.867 0 0 0 1.853-1.88V8.271a1.867 1.867 0 0 0-1.853-1.88zM52.182 4.562L56.4 8.848a7.977 7.977 0 0 1-8.445 0zM38.393 27.126l-4.222-4.286 4.223-4.285a8.3 8.3 0 0 1 0 8.571zm28.413 28.832l-4.222-4.285a7.966 7.966 0 0 1 8.444 0zm6.894-6.993a11.635 11.635 0 0 0-13.782 0L41.063 29.834a12.092 12.092 0 0 0 0-13.988l4.227-4.29a11.635 11.635 0 0 0 13.784 0l4.007 4.067a7.24 7.24 0 0 0-2.494.863 7.326 7.326 0 0 0-3.019 3.236 10.509 10.509 0 0 0-5.542 2.96 10.843 10.843 0 0 0 0 15.157 10.464 10.464 0 0 0 14.936 0 10.714 10.714 0 0 0 2.748-4.851l6.256 2.154a12.145 12.145 0 0 0 1.963 9.529zM62.433 30.481l.049.018 3.7 1.276a6.957 6.957 0 0 1-1.845 3.405 6.793 6.793 0 0 1-9.7 0 7.038 7.038 0 0 1 0-9.839 6.845 6.845 0 0 1 2.235-1.513 8.294 8.294 0 0 0 5.561 6.653zM80.6 41.962a8.311 8.311 0 0 1-1.184-3.91 14.342 14.342 0 0 0 3.267 1.8zm16.71-10.736c-1.756 2.921-5.162 5.911-8.833 5.911A13.292 13.292 0 0 1 86.543 37h-.007a10.583 10.583 0 0 1-6.863-3.811c-.038-.056-.2-.27-.223-.306a1.853 1.853 0 0 0-1.021-.862L63.7 26.946c-2.351-.9-3.593-2.938-3.024-4.975v-.009a3.63 3.63 0 0 1 1.713-2.192 3.539 3.539 0 0 1 2.72-.33l16.6 5.338a1.847 1.847 0 0 0 2.326-1.224 1.886 1.886 0 0 0-1.207-2.36l-13.2-4.245-.115-.117-6.839-6.94 5.875-2.135.064-.025.019-.008.075-.033a11.846 11.846 0 0 1 9.226-.16 106.754 106.754 0 0 1 10.758 5.576c3.032 1.774 4.493 2.629 8.619 2.975zm7.019-1.131h-3.313v-16.44h3.313zm11.016 0h-7.31V10.151h7.31z" class="cls-1" data-name="Path 286" transform="translate(-29.691 -.023)"/>
            </g>
        </g>
    </g>
</svg>
